<?xml version="1.0" encoding="UTF-8" standalone="no"?>
<!-- Created with Inkscape (http://www.inkscape.org/) -->

<svg
   xmlns:dc="http://purl.org/dc/elements/1.1/"
   xmlns:cc="http://creativecommons.org/ns#"
   xmlns:rdf="http://www.w3.org/1999/02/22-rdf-syntax-ns#"
   xmlns:svg="http://www.w3.org/2000/svg"
   xmlns="http://www.w3.org/2000/svg"
   xmlns:sodipodi="http://sodipodi.sourceforge.net/DTD/sodipodi-0.dtd"
   xmlns:inkscape="http://www.inkscape.org/namespaces/inkscape"
   version="1.1"
   width="682"
   height="541.125"
   id="svg2"
   inkscape:version="0.48.5 r10040"
   sodipodi:docname="architecture.svg">
  <sodipodi:namedview
     pagecolor="#ffffff"
     bordercolor="#666666"
     borderopacity="1"
     objecttolerance="10"
     gridtolerance="10"
     guidetolerance="10"
     inkscape:pageopacity="0"
     inkscape:pageshadow="2"
     inkscape:window-width="1470"
     inkscape:window-height="863"
     id="namedview3711"
     showgrid="false"
     inkscape:zoom="2.0611852"
     inkscape:cx="341.41557"
     inkscape:cy="354.9504"
     inkscape:window-x="67"
     inkscape:window-y="925"
     inkscape:window-maximized="0"
     inkscape:current-layer="g6" />
  <metadata
     id="metadata676">
    <rdf:RDF>
      <cc:Work
         rdf:about="">
        <dc:format>image/svg+xml</dc:format>
        <dc:type
           rdf:resource="http://purl.org/dc/dcmitype/StillImage" />
        <dc:title />
      </cc:Work>
    </rdf:RDF>
  </metadata>
  <defs
     id="defs4" />
  <g
     transform="translate(-79,-20.75)"
     id="g6">
    <g
       transform="translate(80,21.75)"
       id="g12">
      <g
         id="g14">
        <g
           transform="scale(6.8,3.1825)"
           id="g16">
          <g
             id="g18">
            <path
               d="m 0,0 100,0 q 0,0 0,0 l 0,100 q 0,0 0,0 L 0,100 q 0,0 0,0 L 0,0 q 0,0 0,0 z"
               id="path20"
               style="fill:#9fc5e8;stroke:none" />
            <g
               transform="scale(0.14705882,0.31421838)"
               id="g22">
              <path
                 d="m 0,0 680,0 q 0,0 0,0 l 0,318.25 q 0,0 0,0 l -680,0 q 0,0 0,0 L 0,0 q 0,0 0,0 z"
                 id="path24"
                 style="fill:none;stroke:none" />
              <path
                 d="m 0,0 m 0,0 680,0 q 0,0 0,0 l 0,318.25 q 0,0 0,0 l -680,0 q 0,0 0,0 L 0,0 q 0,0 0,0 z"
                 id="path26"
                 style="fill:none;stroke:#333333;stroke-width:2;stroke-miterlimit:10" />
            </g>
          </g>
          <g
             id="g28">
            <g
               transform="scale(0.14705882,0.31421838)"
               id="g30">
              <path
                 d="m 13.6,6.365 0,302.3375 646,0 0,-299.155 -639.2,0 z"
                 id="path32"
                 style="opacity:0;fill:#000000;fill-opacity:0;stroke:none" />
              <path
                 d="m 13.6,6.365 m 0,0 0,4 m 0,0 m 0,2 0,4 m 0,0 m 0,2 0,4 m 0,0 m 0,2 0,4 m 0,0 m 0,2 0,4 m 0,0 m 0,2 0,4 m 0,0 m 0,2 0,4 m 0,0 m 0,2 0,4 m 0,0 m 0,2 0,4 m 0,0 m 0,2 0,4 m 0,0 m 0,2 0,4 m 0,0 m 0,2 0,4 m 0,0 m 0,2 0,4 m 0,0 m 0,2 0,4 m 0,0 m 0,2 0,4 m 0,0 m 0,2 0,4 m 0,0 m 0,2 0,4 m 0,0 m 0,2 0,4 m 0,0 m 0,2 0,4 m 0,0 m 0,2 0,4 m 0,0 m 0,2 0,4 m 0,0 m 0,2 0,4 m 0,0 m 0,2 0,4 m 0,0 m 0,2 0,4 m 0,0 m 0,2 0,4 m 0,0 m 0,2 0,4 m 0,0 m 0,2 0,4 m 0,0 m 0,2 0,4 m 0,0 m 0,2 0,4 m 0,0 m 0,2 0,4 m 0,0 m 0,2 0,4 m 0,0 m 0,2 0,4 m 0,0 m 0,2 0,4 m 0,0 m 0,2 0,4 m 0,0 m 0,2 0,4 m 0,0 m 0,2 0,4 m 0,0 m 0,2 0,4 m 0,0 m 0,2 0,4 m 0,0 m 0,2 0,4 m 0,0 m 0,2 0,4 m 0,0 m 0,2 0,4 m 0,0 m 0,2 0,4 m 0,0 m 0,2 0,4 m 0,0 m 0,2 0,4 m 0,0 m 0,2 0,4 m 0,0 m 0,2 0,4 m 0,0 m 0,2 0,4 m 0,0 m 0,2 0,4 m 0,0 m 0,2 0,4 m 0,0 m 0,2 0,4 m 0,0 m 0,2 0,2.3375 1.6625,0 m 0,0 m 2,0 4,0 m 0,0 m 2,0 4,0 m 0,0 m 2,0 4,0 m 0,0 m 2,0 4,0 m 0,0 m 2,0 4,0 m 0,0 m 2,0 4,0 m 0,0 m 2,0 4,0 m 0,0 m 2,0 4,0 m 0,0 m 2,0 4,0 m 0,0 m 2,0 4,0 m 0,0 m 2,0 4,0 m 0,0 m 2,0 4,0 m 0,0 m 2,0 4,0 m 0,0 m 2,0 4,0 m 0,0 m 2,0 4,0 m 0,0 m 2,0 4,0 m 0,0 m 2,0 4,0 m 0,0 m 2,0 4,0 m 0,0 m 2,0 4,0 m 0,0 m 2,0 4,0 m 0,0 m 2,0 4,0 m 0,0 m 2,0 4,0 m 0,0 m 2,0 4,0 m 0,0 m 2,0 4,0 m 0,0 m 2,0 4,0 m 0,0 m 2,0 4,0 m 0,0 m 2,0 4,0 m 0,0 m 2,0 4,0 m 0,0 m 2,0 4,0 m 0,0 m 2,0 4,0 m 0,0 m 2,0 4,0 m 0,0 m 2,0 4,0 m 0,0 m 2,0 4,0 m 0,0 m 2,0 4,0 m 0,0 m 2,0 4,0 m 0,0 m 2,0 4,0 m 0,0 m 2,0 4,0 m 0,0 m 2,0 4,0 m 0,0 m 2,0 4,0 m 0,0 m 2,0 4,0 m 0,0 m 2,0 4,0 m 0,0 m 2,0 4,0 m 0,0 m 2,0 4,0 m 0,0 m 2,0 4,0 m 0,0 m 2,0 4,0 m 0,0 m 2,0 4,0 m 0,0 m 2,0 4,0 m 0,0 m 2,0 4,0 m 0,0 m 2,0 4,0 m 0,0 m 2,0 4,0 m 0,0 m 2,0 4,0 m 0,0 m 2,0 4,0 m 0,0 m 2,0 4,0 m 0,0 m 2,0 4,0 m 0,0 m 2,0 4,0 m 0,0 m 2,0 4,0 m 0,0 m 2,0 4,0 m 0,0 m 2,0 4,0 m 0,0 m 2,0 4,0 m 0,0 m 2,0 4,0 m 0,0 m 2,0 4,0 m 0,0 m 2,0 4,0 m 0,0 m 2,0 4,0 m 0,0 m 2,0 4,0 m 0,0 m 2,0 4,0 m 0,0 m 2,0 4,0 m 0,0 m 2,0 4,0 m 0,0 m 2,0 4,0 m 0,0 m 2,0 4,0 m 0,0 m 2,0 4,0 m 0,0 m 2,0 4,0 m 0,0 m 2,0 4,0 m 0,0 m 2,0 4,0 m 0,0 m 2,0 4,0 m 0,0 m 2,0 4,0 m 0,0 m 2,0 4,0 m 0,0 m 2,0 4,0 m 0,0 m 2,0 4,0 m 0,0 m 2,0 4,0 m 0,0 m 2,0 4,0 m 0,0 m 2,0 4,0 m 0,0 m 2,0 4,0 m 0,0 m 2,0 4,0 m 0,0 m 2,0 4,0 m 0,0 m 2,0 4,0 m 0,0 m 2,0 4,0 m 0,0 m 2,0 4,0 m 0,0 m 2,0 4,0 m 0,0 m 2,0 4,0 m 0,0 m 2,0 4,0 m 0,0 m 2,0 4,0 m 0,0 m 2,0 4,0 m 0,0 m 2,0 4,0 m 0,0 m 2,0 4,0 m 0,0 m 2,0 4,0 m 0,0 m 2,0 4,0 m 0,0 m 2,0 4,0 m 0,0 m 2,0 4,0 m 0,0 m 2,0 4,0 m 0,0 m 2,0 4,0 m 0,0 m 2,0 4,0 m 0,0 m 2,0 4,0 m 0,0 m 2,0 4,0 m 0,0 m 2,0 4,0 m 0,0 m 2,0 4,0 m 0,0 m 2,0 4,0 m 0,0 m 2,0 4,0 m 0,0 m 2,0 0.3375,0 0,-3.6625 m 0,0 m 0,-2 0,-4 m 0,0 m 0,-2 0,-4 m 0,0 m 0,-2 0,-4 m 0,0 m 0,-2 0,-4 m 0,0 m 0,-2 0,-4 m 0,0 m 0,-2 0,-4 m 0,0 m 0,-2 0,-4 m 0,0 m 0,-2 0,-4 m 0,0 m 0,-2 0,-4 m 0,0 m 0,-2 0,-4 m 0,0 m 0,-2 0,-4 m 0,0 m 0,-2 0,-4 m 0,0 m 0,-2 0,-4 m 0,0 m 0,-2 0,-4 m 0,0 m 0,-2 0,-4 m 0,0 m 0,-2 0,-4 m 0,0 m 0,-2 0,-4 m 0,0 m 0,-2 0,-4 m 0,0 m 0,-2 0,-4 m 0,0 m 0,-2 0,-4 m 0,0 m 0,-2 0,-4 m 0,0 m 0,-2 0,-4 m 0,0 m 0,-2 0,-4 m 0,0 m 0,-2 0,-4 m 0,0 m 0,-2 0,-4 m 0,0 m 0,-2 0,-4 m 0,0 m 0,-2 0,-4 m 0,0 m 0,-2 0,-4 m 0,0 m 0,-2 0,-4 m 0,0 m 0,-2 0,-4 m 0,0 m 0,-2 0,-4 m 0,0 m 0,-2 0,-4 m 0,0 m 0,-2 0,-4 m 0,0 m 0,-2 0,-4 m 0,0 m 0,-2 0,-4 m 0,0 m 0,-2 0,-4 m 0,0 m 0,-2 0,-4 m 0,0 m 0,-2 0,-4 m 0,0 m 0,-2 0,-4 m 0,0 m 0,-2 0,-4 m 0,0 m 0,-2 0,-4 m 0,0 m 0,-2 0,-4 m 0,0 m 0,-2 0,-4 m 0,0 m 0,-2 0,-4 m 0,0 m 0,-2 0,-4 m 0,0 m 0,-2 0,-4 m 0,0 m 0,-2 0,-4 m 0,0 m 0,-2 0,-4 m 0,0 m 0,-2 0,-4 m 0,0 m -0.5075,-1.4925 -4,0 m 0,0 m -2,0 -4,0 m 0,0 m -2,0 -4,0 m 0,0 m -2,0 -4,0 m 0,0 m -2,0 -4,0 m 0,0 m -2,0 -4,0 m 0,0 m -2,0 -4,0 m 0,0 m -2,0 -4,0 m 0,0 m -2,0 -4,0 m 0,0 m -2,0 -4,0 m 0,0 m -2,0 -4,0 m 0,0 m -2,0 -4,0 m 0,0 m -2,0 -4,0 m 0,0 m -2,0 -4,0 m 0,0 m -2,0 -4,0 m 0,0 m -2,0 -4,0 m 0,0 m -2,0 -4,0 m 0,0 m -2,0 -4,0 m 0,0 m -2,0 -4,0 m 0,0 m -2,0 -4,0 m 0,0 m -2,0 -4,0 m 0,0 m -2,0 -4,0 m 0,0 m -2,0 -4,0 m 0,0 m -2,0 -4,0 m 0,0 m -2,0 -4,0 m 0,0 m -2,0 -4,0 m 0,0 m -2,0 -4,0 m 0,0 m -2,0 -4,0 m 0,0 m -2,0 -4,0 m 0,0 m -2,0 -4,0 m 0,0 m -2,0 -4,0 m 0,0 m -2,0 -4,0 m 0,0 m -2,0 -4,0 m 0,0 m -2,0 -4,0 m 0,0 m -2,0 -4,0 m 0,0 m -2,0 -4,0 m 0,0 m -2,0 -4,0 m 0,0 m -2,0 -4,0 m 0,0 m -2,0 -4,0 m 0,0 m -2,0 -4,0 m 0,0 m -2,0 -4,0 m 0,0 m -2,0 -4,0 m 0,0 m -2,0 -4,0 m 0,0 m -2,0 -4,0 m 0,0 m -2,0 -4,0 m 0,0 m -2,0 -4,0 m 0,0 m -2,0 -4,0 m 0,0 m -2,0 -4,0 m 0,0 m -2,0 -4,0 m 0,0 m -2,0 -4,0 m 0,0 m -2,0 -4,0 m 0,0 m -2,0 -4,0 m 0,0 m -2,0 -4,0 m 0,0 m -2,0 -4,0 m 0,0 m -2,0 -4,0 m 0,0 m -2,0 -4,0 m 0,0 m -2,0 -4,0 m 0,0 m -2,0 -4,0 m 0,0 m -2,0 -4,0 m 0,0 m -2,0 -4,0 m 0,0 m -2,0 -4,0 m 0,0 m -2,0 -4,0 m 0,0 m -2,0 -4,0 m 0,0 m -2,0 -4,0 m 0,0 m -2,0 -4,0 m 0,0 m -2,0 -4,0 m 0,0 m -2,0 -4,0 m 0,0 m -2,0 -4,0 m 0,0 m -2,0 -4,0 m 0,0 m -2,0 -4,0 m 0,0 m -2,0 -4,0 m 0,0 m -2,0 -4,0 m 0,0 m -2,0 -4,0 m 0,0 m -2,0 -4,0 m 0,0 m -2,0 -4,0 m 0,0 m -2,0 -4,0 m 0,0 m -2,0 -4,0 m 0,0 m -2,0 -4,0 m 0,0 m -2,0 -4,0 m 0,0 m -2,0 -4,0 m 0,0 m -2,0 -4,0 m 0,0 m -2,0 -4,0 m 0,0 m -2,0 -4,0 m 0,0 m -2,0 -4,0 m 0,0 m -2,0 -4,0 m 0,0 m -2,0 -4,0 m 0,0 m -2,0 -4,0 m 0,0 m -2,0 -4,0 m 0,0 m -2,0 -4,0 m 0,0 m -2,0 -4,0 m 0,0 m -2,0 -4,0 m 0,0 m -2,0 -4,0 m 0,0 m -2,0 -4,0 m 0,0 m -2,0 -4,0 m 0,0 m -2,0 -4,0 m 0,0 m -2,0 -4,0 m 0,0 m -2,0 -4,0 m 0,0 m -2,0 -4,0 m 0,0 m -2,0 -4,0 m 0,0 m -2,0 -4,0 m 0,0 m -2,0 -4,0 m 0,0 m -2,0 -4,0 m 0,0 m -2,0 -4,0 m 0,0 m -2,0 -4,0 m 0,0 m -2,0 -4,0 m 0,0 m -2,0 -4,0 m 0,0 m -2,0 -2.6925,0 z"
                 id="path34"
                 style="opacity:0;fill:none;stroke:#3c7626;stroke-width:2;stroke-miterlimit:10" />
            </g>
          </g>
        </g>
      </g>
    </g>
    <g
       transform="translate(95.6,23.75)"
       id="g36">
      <text
         x="0"
         y="11"
         id="text38"
         style="font-size:12px;font-style:normal;font-weight:normal;text-decoration:none;fill:#000000;stroke:none;font-family:Arial">Portal</text>
    </g>
    <g
       transform="translate(80,350.875)"
       id="g40">
      <g
         id="g42">
        <g
           transform="scale(6.8,2.1)"
           id="g44">
          <g
             id="g46">
            <path
               d="m 0,0 100,0 q 0,0 0,0 l 0,100 q 0,0 0,0 L 0,100 q 0,0 0,0 L 0,0 q 0,0 0,0 z"
               id="path48"
               style="fill:#b6d7a8;stroke:none" />
            <g
               transform="scale(0.14705882,0.47619048)"
               id="g50">
              <path
                 d="m 0,0 680,0 q 0,0 0,0 l 0,210 q 0,0 0,0 L 0,210 q 0,0 0,0 L 0,0 q 0,0 0,0 z"
                 id="path52"
                 style="fill:none;stroke:none" />
              <path
                 d="m 0,0 m 0,0 680,0 q 0,0 0,0 l 0,210 q 0,0 0,0 L 0,210 q 0,0 0,0 L 0,0 q 0,0 0,0 z"
                 id="path54"
                 style="fill:none;stroke:#333333;stroke-width:2;stroke-miterlimit:10" />
            </g>
          </g>
          <g
             id="g56">
            <g
               transform="scale(0.14705882,0.47619048)"
               id="g58">
              <path
                 d="m 13.6,4.2 0,199.5 646,0 0,-197.4 -639.2,0 z"
                 id="path60"
                 style="opacity:0;fill:#000000;fill-opacity:0;stroke:none" />
              <path
                 d="m 13.6,4.2 m 0,0 0,4 m 0,0 m 0,2 0,4 m 0,0 m 0,2 0,4 m 0,0 m 0,2 0,4 m 0,0 m 0,2 0,4 m 0,0 m 0,2 0,4 m 0,0 m 0,2 0,4 m 0,0 m 0,2 0,4 m 0,0 m 0,2 0,4 m 0,0 m 0,2 0,4 m 0,0 m 0,2 0,4 m 0,0 m 0,2 0,4 m 0,0 m 0,2 0,4 m 0,0 m 0,2 0,4 m 0,0 m 0,2 0,4 m 0,0 m 0,2 0,4 m 0,0 m 0,2 0,4 m 0,0 m 0,2 0,4 m 0,0 m 0,2 0,4 m 0,0 m 0,2 0,4 m 0,0 m 0,2 0,4 m 0,0 m 0,2 0,4 m 0,0 m 0,2 0,4 m 0,0 m 0,2 0,4 m 0,0 m 0,2 0,4 m 0,0 m 0,2 0,4 m 0,0 m 0,2 0,4 m 0,0 m 0,2 0,4 m 0,0 m 0,2 0,4 m 0,0 m 0,2 0,4 m 0,0 m 0,2 0,4 m 0,0 m 0,2 0,4 m 0,0 m 0,2 0,4 m 0,0 m 0,2 0,1.5 2.5,0 m 0,0 m 2,0 4,0 m 0,0 m 2,0 4,0 m 0,0 m 2,0 4,0 m 0,0 m 2,0 4,0 m 0,0 m 2,0 4,0 m 0,0 m 2,0 4,0 m 0,0 m 2,0 4,0 m 0,0 m 2,0 4,0 m 0,0 m 2,0 4,0 m 0,0 m 2,0 4,0 m 0,0 m 2,0 4,0 m 0,0 m 2,0 4,0 m 0,0 m 2,0 4,0 m 0,0 m 2,0 4,0 m 0,0 m 2,0 4,0 m 0,0 m 2,0 4,0 m 0,0 m 2,0 4,0 m 0,0 m 2,0 4,0 m 0,0 m 2,0 4,0 m 0,0 m 2,0 4,0 m 0,0 m 2,0 4,0 m 0,0 m 2,0 4,0 m 0,0 m 2,0 4,0 m 0,0 m 2,0 4,0 m 0,0 m 2,0 4,0 m 0,0 m 2,0 4,0 m 0,0 m 2,0 4,0 m 0,0 m 2,0 4,0 m 0,0 m 2,0 4,0 m 0,0 m 2,0 4,0 m 0,0 m 2,0 4,0 m 0,0 m 2,0 4,0 m 0,0 m 2,0 4,0 m 0,0 m 2,0 4,0 m 0,0 m 2,0 4,0 m 0,0 m 2,0 4,0 m 0,0 m 2,0 4,0 m 0,0 m 2,0 4,0 m 0,0 m 2,0 4,0 m 0,0 m 2,0 4,0 m 0,0 m 2,0 4,0 m 0,0 m 2,0 4,0 m 0,0 m 2,0 4,0 m 0,0 m 2,0 4,0 m 0,0 m 2,0 4,0 m 0,0 m 2,0 4,0 m 0,0 m 2,0 4,0 m 0,0 m 2,0 4,0 m 0,0 m 2,0 4,0 m 0,0 m 2,0 4,0 m 0,0 m 2,0 4,0 m 0,0 m 2,0 4,0 m 0,0 m 2,0 4,0 m 0,0 m 2,0 4,0 m 0,0 m 2,0 4,0 m 0,0 m 2,0 4,0 m 0,0 m 2,0 4,0 m 0,0 m 2,0 4,0 m 0,0 m 2,0 4,0 m 0,0 m 2,0 4,0 m 0,0 m 2,0 4,0 m 0,0 m 2,0 4,0 m 0,0 m 2,0 4,0 m 0,0 m 2,0 4,0 m 0,0 m 2,0 4,0 m 0,0 m 2,0 4,0 m 0,0 m 2,0 4,0 m 0,0 m 2,0 4,0 m 0,0 m 2,0 4,0 m 0,0 m 2,0 4,0 m 0,0 m 2,0 4,0 m 0,0 m 2,0 4,0 m 0,0 m 2,0 4,0 m 0,0 m 2,0 4,0 m 0,0 m 2,0 4,0 m 0,0 m 2,0 4,0 m 0,0 m 2,0 4,0 m 0,0 m 2,0 4,0 m 0,0 m 2,0 4,0 m 0,0 m 2,0 4,0 m 0,0 m 2,0 4,0 m 0,0 m 2,0 4,0 m 0,0 m 2,0 4,0 m 0,0 m 2,0 4,0 m 0,0 m 2,0 4,0 m 0,0 m 2,0 4,0 m 0,0 m 2,0 4,0 m 0,0 m 2,0 4,0 m 0,0 m 2,0 4,0 m 0,0 m 2,0 4,0 m 0,0 m 2,0 4,0 m 0,0 m 2,0 4,0 m 0,0 m 2,0 4,0 m 0,0 m 2,0 4,0 m 0,0 m 2,0 4,0 m 0,0 m 2,0 4,0 m 0,0 m 2,0 4,0 m 0,0 m 2,0 4,0 m 0,0 m 2,0 4,0 m 0,0 m 2,0 4,0 m 0,0 m 2,0 4,0 m 0,0 m 2,0 4,0 m 0,0 m 2,0 4,0 m 0,0 m 2,0 4,0 m 0,0 m 2,0 4,0 m 0,0 m 2,0 4,0 m 0,0 m 2,0 4,0 m 0,0 m 1.5,-0.5 0,-4 m 0,0 m 0,-2 0,-4 m 0,0 m 0,-2 0,-4 m 0,0 m 0,-2 0,-4 m 0,0 m 0,-2 0,-4 m 0,0 m 0,-2 0,-4 m 0,0 m 0,-2 0,-4 m 0,0 m 0,-2 0,-4 m 0,0 m 0,-2 0,-4 m 0,0 m 0,-2 0,-4 m 0,0 m 0,-2 0,-4 m 0,0 m 0,-2 0,-4 m 0,0 m 0,-2 0,-4 m 0,0 m 0,-2 0,-4 m 0,0 m 0,-2 0,-4 m 0,0 m 0,-2 0,-4 m 0,0 m 0,-2 0,-4 m 0,0 m 0,-2 0,-4 m 0,0 m 0,-2 0,-4 m 0,0 m 0,-2 0,-4 m 0,0 m 0,-2 0,-4 m 0,0 m 0,-2 0,-4 m 0,0 m 0,-2 0,-4 m 0,0 m 0,-2 0,-4 m 0,0 m 0,-2 0,-4 m 0,0 m 0,-2 0,-4 m 0,0 m 0,-2 0,-4 m 0,0 m 0,-2 0,-4 m 0,0 m 0,-2 0,-4 m 0,0 m 0,-2 0,-4 m 0,0 m 0,-2 0,-4 m 0,0 m 0,-2 0,-4 m 0,0 m 0,-2 0,-4 m 0,0 m -1.1,-0.9 -4,0 m 0,0 m -2,0 -4,0 m 0,0 m -2,0 -4,0 m 0,0 m -2,0 -4,0 m 0,0 m -2,0 -4,0 m 0,0 m -2,0 -4,0 m 0,0 m -2,0 -4,0 m 0,0 m -2,0 -4,0 m 0,0 m -2,0 -4,0 m 0,0 m -2,0 -4,0 m 0,0 m -2,0 -4,0 m 0,0 m -2,0 -4,0 m 0,0 m -2,0 -4,0 m 0,0 m -2,0 -4,0 m 0,0 m -2,0 -4,0 m 0,0 m -2,0 -4,0 m 0,0 m -2,0 -4,0 m 0,0 m -2,0 -4,0 m 0,0 m -2,0 -4,0 m 0,0 m -2,0 -4,0 m 0,0 m -2,0 -4,0 m 0,0 m -2,0 -4,0 m 0,0 m -2,0 -4,0 m 0,0 m -2,0 -4,0 m 0,0 m -2,0 -4,0 m 0,0 m -2,0 -4,0 m 0,0 m -2,0 -4,0 m 0,0 m -2,0 -4,0 m 0,0 m -2,0 -4,0 m 0,0 m -2,0 -4,0 m 0,0 m -2,0 -4,0 m 0,0 m -2,0 -4,0 m 0,0 m -2,0 -4,0 m 0,0 m -2,0 -4,0 m 0,0 m -2,0 -4,0 m 0,0 m -2,0 -4,0 m 0,0 m -2,0 -4,0 m 0,0 m -2,0 -4,0 m 0,0 m -2,0 -4,0 m 0,0 m -2,0 -4,0 m 0,0 m -2,0 -4,0 m 0,0 m -2,0 -4,0 m 0,0 m -2,0 -4,0 m 0,0 m -2,0 -4,0 m 0,0 m -2,0 -4,0 m 0,0 m -2,0 -4,0 m 0,0 m -2,0 -4,0 m 0,0 m -2,0 -4,0 m 0,0 m -2,0 -4,0 m 0,0 m -2,0 -4,0 m 0,0 m -2,0 -4,0 m 0,0 m -2,0 -4,0 m 0,0 m -2,0 -4,0 m 0,0 m -2,0 -4,0 m 0,0 m -2,0 -4,0 m 0,0 m -2,0 -4,0 m 0,0 m -2,0 -4,0 m 0,0 m -2,0 -4,0 m 0,0 m -2,0 -4,0 m 0,0 m -2,0 -4,0 m 0,0 m -2,0 -4,0 m 0,0 m -2,0 -4,0 m 0,0 m -2,0 -4,0 m 0,0 m -2,0 -4,0 m 0,0 m -2,0 -4,0 m 0,0 m -2,0 -4,0 m 0,0 m -2,0 -4,0 m 0,0 m -2,0 -4,0 m 0,0 m -2,0 -4,0 m 0,0 m -2,0 -4,0 m 0,0 m -2,0 -4,0 m 0,0 m -2,0 -4,0 m 0,0 m -2,0 -4,0 m 0,0 m -2,0 -4,0 m 0,0 m -2,0 -4,0 m 0,0 m -2,0 -4,0 m 0,0 m -2,0 -4,0 m 0,0 m -2,0 -4,0 m 0,0 m -2,0 -4,0 m 0,0 m -2,0 -4,0 m 0,0 m -2,0 -4,0 m 0,0 m -2,0 -4,0 m 0,0 m -2,0 -4,0 m 0,0 m -2,0 -4,0 m 0,0 m -2,0 -4,0 m 0,0 m -2,0 -4,0 m 0,0 m -2,0 -4,0 m 0,0 m -2,0 -4,0 m 0,0 m -2,0 -4,0 m 0,0 m -2,0 -4,0 m 0,0 m -2,0 -4,0 m 0,0 m -2,0 -4,0 m 0,0 m -2,0 -4,0 m 0,0 m -2,0 -4,0 m 0,0 m -2,0 -4,0 m 0,0 m -2,0 -4,0 m 0,0 m -2,0 -4,0 m 0,0 m -2,0 -4,0 m 0,0 m -2,0 -4,0 m 0,0 m -2,0 -4,0 m 0,0 m -2,0 -4,0 m 0,0 m -2,0 -4,0 m 0,0 m -2,0 -4,0 m 0,0 m -2,0 -4,0 m 0,0 m -2,0 -4,0 m 0,0 m -2,0 -4,0 m 0,0 m -2,0 -2.1,0 z"
                 id="path62"
                 style="opacity:0;fill:none;stroke:#3c7626;stroke-width:2;stroke-miterlimit:10" />
            </g>
          </g>
        </g>
      </g>
    </g>
    <g
       transform="translate(84.956522,352.875)"
       id="g64">
      <text
         x="0"
         y="11"
         id="text66"
         style="font-size:12px;font-style:normal;font-weight:normal;text-decoration:none;fill:#000000;stroke:none;font-family:Arial">Compute Node</text>
    </g>
    <g
       transform="translate(100,50)"
       id="g68">
      <g
         id="g70">
        <g
           transform="scale(6.4,0.575)"
           id="g72">
          <g
             id="g74">
            <path
               d="m 0,0 100,0 q 0,0 0,0 l 0,100 q 0,0 0,0 L 0,100 q 0,0 0,0 L 0,0 q 0,0 0,0 z"
               id="path76"
               style="fill:#cfe2f3;stroke:none" />
            <g
               transform="scale(0.15625,1.7391304)"
               id="g78">
              <path
                 d="m 0,0 640,0 q 0,0 0,0 l 0,57.5 q 0,0 0,0 l -640,0 q 0,0 0,0 L 0,0 q 0,0 0,0 z"
                 id="path80"
                 style="fill:none;stroke:none" />
              <path
                 d="m 0,0 m 0,0 640,0 q 0,0 0,0 l 0,57.5 q 0,0 0,0 l -640,0 q 0,0 0,0 L 0,0 q 0,0 0,0 z"
                 id="path82"
                 style="fill:none;stroke:#333333;stroke-width:2;stroke-miterlimit:10" />
            </g>
          </g>
          <g
             id="g84">
            <g
               transform="scale(0.15625,1.7391304)"
               id="g86">
              <path
                 d="m 12.8,1.15 0,54.625 608,0 0,-54.05 -601.6,0 z"
                 id="path88"
                 style="opacity:0;fill:#000000;fill-opacity:0;stroke:none" />
              <path
                 d="m 12.8,1.15 m 0,0 0,4 m 0,0 m 0,2 0,4 m 0,0 m 0,2 0,4 m 0,0 m 0,2 0,4 m 0,0 m 0,2 0,4 m 0,0 m 0,2 0,4 m 0,0 m 0,2 0,4 m 0,0 m 0,2 0,4 m 0,0 m 0,2 0,4 m 0,0 m 0,2 0,0.625 3.375,0 m 0,0 m 2,0 4,0 m 0,0 m 2,0 4,0 m 0,0 m 2,0 4,0 m 0,0 m 2,0 4,0 m 0,0 m 2,0 4,0 m 0,0 m 2,0 4,0 m 0,0 m 2,0 4,0 m 0,0 m 2,0 4,0 m 0,0 m 2,0 4,0 m 0,0 m 2,0 4,0 m 0,0 m 2,0 4,0 m 0,0 m 2,0 4,0 m 0,0 m 2,0 4,0 m 0,0 m 2,0 4,0 m 0,0 m 2,0 4,0 m 0,0 m 2,0 4,0 m 0,0 m 2,0 4,0 m 0,0 m 2,0 4,0 m 0,0 m 2,0 4,0 m 0,0 m 2,0 4,0 m 0,0 m 2,0 4,0 m 0,0 m 2,0 4,0 m 0,0 m 2,0 4,0 m 0,0 m 2,0 4,0 m 0,0 m 2,0 4,0 m 0,0 m 2,0 4,0 m 0,0 m 2,0 4,0 m 0,0 m 2,0 4,0 m 0,0 m 2,0 4,0 m 0,0 m 2,0 4,0 m 0,0 m 2,0 4,0 m 0,0 m 2,0 4,0 m 0,0 m 2,0 4,0 m 0,0 m 2,0 4,0 m 0,0 m 2,0 4,0 m 0,0 m 2,0 4,0 m 0,0 m 2,0 4,0 m 0,0 m 2,0 4,0 m 0,0 m 2,0 4,0 m 0,0 m 2,0 4,0 m 0,0 m 2,0 4,0 m 0,0 m 2,0 4,0 m 0,0 m 2,0 4,0 m 0,0 m 2,0 4,0 m 0,0 m 2,0 4,0 m 0,0 m 2,0 4,0 m 0,0 m 2,0 4,0 m 0,0 m 2,0 4,0 m 0,0 m 2,0 4,0 m 0,0 m 2,0 4,0 m 0,0 m 2,0 4,0 m 0,0 m 2,0 4,0 m 0,0 m 2,0 4,0 m 0,0 m 2,0 4,0 m 0,0 m 2,0 4,0 m 0,0 m 2,0 4,0 m 0,0 m 2,0 4,0 m 0,0 m 2,0 4,0 m 0,0 m 2,0 4,0 m 0,0 m 2,0 4,0 m 0,0 m 2,0 4,0 m 0,0 m 2,0 4,0 m 0,0 m 2,0 4,0 m 0,0 m 2,0 4,0 m 0,0 m 2,0 4,0 m 0,0 m 2,0 4,0 m 0,0 m 2,0 4,0 m 0,0 m 2,0 4,0 m 0,0 m 2,0 4,0 m 0,0 m 2,0 4,0 m 0,0 m 2,0 4,0 m 0,0 m 2,0 4,0 m 0,0 m 2,0 4,0 m 0,0 m 2,0 4,0 m 0,0 m 2,0 4,0 m 0,0 m 2,0 4,0 m 0,0 m 2,0 4,0 m 0,0 m 2,0 4,0 m 0,0 m 2,0 4,0 m 0,0 m 2,0 4,0 m 0,0 m 2,0 4,0 m 0,0 m 2,0 4,0 m 0,0 m 2,0 4,0 m 0,0 m 2,0 4,0 m 0,0 m 2,0 4,0 m 0,0 m 2,0 4,0 m 0,0 m 2,0 4,0 m 0,0 m 2,0 4,0 m 0,0 m 2,0 4,0 m 0,0 m 2,0 4,0 m 0,0 m 2,0 4,0 m 0,0 m 2,0 4,0 m 0,0 m 2,0 4,0 m 0,0 m 2,0 4,0 m 0,0 m 2,0 4,0 m 0,0 m 2,0 4,0 m 0,0 m 2,0 4,0 m 0,0 m 2,0 4,0 m 0,0 m 2,0 4,0 m 0,0 m 2,0 4,0 m 0,0 m 2,0 2.625,0 0,-1.375 m 0,0 m 0,-2 0,-4 m 0,0 m 0,-2 0,-4 m 0,0 m 0,-2 0,-4 m 0,0 m 0,-2 0,-4 m 0,0 m 0,-2 0,-4 m 0,0 m 0,-2 0,-4 m 0,0 m 0,-2 0,-4 m 0,0 m 0,-2 0,-4 m 0,0 m 0,-2 0,-2.675 -1.325,0 m 0,0 m -2,0 -4,0 m 0,0 m -2,0 -4,0 m 0,0 m -2,0 -4,0 m 0,0 m -2,0 -4,0 m 0,0 m -2,0 -4,0 m 0,0 m -2,0 -4,0 m 0,0 m -2,0 -4,0 m 0,0 m -2,0 -4,0 m 0,0 m -2,0 -4,0 m 0,0 m -2,0 -4,0 m 0,0 m -2,0 -4,0 m 0,0 m -2,0 -4,0 m 0,0 m -2,0 -4,0 m 0,0 m -2,0 -4,0 m 0,0 m -2,0 -4,0 m 0,0 m -2,0 -4,0 m 0,0 m -2,0 -4,0 m 0,0 m -2,0 -4,0 m 0,0 m -2,0 -4,0 m 0,0 m -2,0 -4,0 m 0,0 m -2,0 -4,0 m 0,0 m -2,0 -4,0 m 0,0 m -2,0 -4,0 m 0,0 m -2,0 -4,0 m 0,0 m -2,0 -4,0 m 0,0 m -2,0 -4,0 m 0,0 m -2,0 -4,0 m 0,0 m -2,0 -4,0 m 0,0 m -2,0 -4,0 m 0,0 m -2,0 -4,0 m 0,0 m -2,0 -4,0 m 0,0 m -2,0 -4,0 m 0,0 m -2,0 -4,0 m 0,0 m -2,0 -4,0 m 0,0 m -2,0 -4,0 m 0,0 m -2,0 -4,0 m 0,0 m -2,0 -4,0 m 0,0 m -2,0 -4,0 m 0,0 m -2,0 -4,0 m 0,0 m -2,0 -4,0 m 0,0 m -2,0 -4,0 m 0,0 m -2,0 -4,0 m 0,0 m -2,0 -4,0 m 0,0 m -2,0 -4,0 m 0,0 m -2,0 -4,0 m 0,0 m -2,0 -4,0 m 0,0 m -2,0 -4,0 m 0,0 m -2,0 -4,0 m 0,0 m -2,0 -4,0 m 0,0 m -2,0 -4,0 m 0,0 m -2,0 -4,0 m 0,0 m -2,0 -4,0 m 0,0 m -2,0 -4,0 m 0,0 m -2,0 -4,0 m 0,0 m -2,0 -4,0 m 0,0 m -2,0 -4,0 m 0,0 m -2,0 -4,0 m 0,0 m -2,0 -4,0 m 0,0 m -2,0 -4,0 m 0,0 m -2,0 -4,0 m 0,0 m -2,0 -4,0 m 0,0 m -2,0 -4,0 m 0,0 m -2,0 -4,0 m 0,0 m -2,0 -4,0 m 0,0 m -2,0 -4,0 m 0,0 m -2,0 -4,0 m 0,0 m -2,0 -4,0 m 0,0 m -2,0 -4,0 m 0,0 m -2,0 -4,0 m 0,0 m -2,0 -4,0 m 0,0 m -2,0 -4,0 m 0,0 m -2,0 -4,0 m 0,0 m -2,0 -4,0 m 0,0 m -2,0 -4,0 m 0,0 m -2,0 -4,0 m 0,0 m -2,0 -4,0 m 0,0 m -2,0 -4,0 m 0,0 m -2,0 -4,0 m 0,0 m -2,0 -4,0 m 0,0 m -2,0 -4,0 m 0,0 m -2,0 -4,0 m 0,0 m -2,0 -4,0 m 0,0 m -2,0 -4,0 m 0,0 m -2,0 -4,0 m 0,0 m -2,0 -4,0 m 0,0 m -2,0 -4,0 m 0,0 m -2,0 -4,0 m 0,0 m -2,0 -4,0 m 0,0 m -2,0 -4,0 m 0,0 m -2,0 -4,0 m 0,0 m -2,0 -4,0 m 0,0 m -2,0 -4,0 m 0,0 m -2,0 -4,0 m 0,0 m -2,0 -4,0 m 0,0 m -2,0 -4,0 m 0,0 m -2,0 -4,0 m 0,0 m -2,0 -4,0 m 0,0 m -2,0 -4,0 m 0,0 m -2,0 -4,0 m 0,0 m -2,0 -4,0 m 0,0 z"
                 id="path90"
                 style="opacity:0;fill:none;stroke:#3c7626;stroke-width:2;stroke-miterlimit:10" />
            </g>
          </g>
        </g>
      </g>
    </g>
    <g
       transform="translate(114.8,52)"
       id="g92">
      <text
         x="0"
         y="11"
         id="text94"
         style="font-size:12px;font-style:normal;font-weight:normal;text-decoration:none;fill:#000000;stroke:none;font-family:Arial">dit4c-platform-ssl</text>
    </g>
    <g
       transform="translate(100,137.5)"
       id="g96">
      <g
         id="g98">
        <g
           transform="scale(3,0.725)"
           id="g100">
          <g
             id="g102">
            <path
               d="m 0,0 100,0 q 0,0 0,0 l 0,100 q 0,0 0,0 L 0,100 q 0,0 0,0 L 0,0 q 0,0 0,0 z"
               id="path104"
               style="fill:#cfe2f3;stroke:none" />
            <g
               transform="scale(0.33333333,1.3793103)"
               id="g106">
              <path
                 d="m 0,0 300,0 q 0,0 0,0 l 0,72.5 q 0,0 0,0 l -300,0 q 0,0 0,0 L 0,0 q 0,0 0,0 z"
                 id="path108"
                 style="fill:none;stroke:none" />
              <path
                 d="m 0,0 m 0,0 300,0 q 0,0 0,0 l 0,72.5 q 0,0 0,0 l -300,0 q 0,0 0,0 L 0,0 q 0,0 0,0 z"
                 id="path110"
                 style="fill:none;stroke:#333333;stroke-width:2;stroke-miterlimit:10" />
            </g>
          </g>
          <g
             id="g112">
            <g
               transform="scale(0.33333333,1.3793103)"
               id="g114">
              <path
                 d="m 6,1.45 0,68.875 285,0 0,-68.15 -282,0 z"
                 id="path116"
                 style="opacity:0;fill:#000000;fill-opacity:0;stroke:none" />
              <path
                 d="m 6,1.45 m 0,0 0,4 m 0,0 m 0,2 0,4 m 0,0 m 0,2 0,4 m 0,0 m 0,2 0,4 m 0,0 m 0,2 0,4 m 0,0 m 0,2 0,4 m 0,0 m 0,2 0,4 m 0,0 m 0,2 0,4 m 0,0 m 0,2 0,4 m 0,0 m 0,2 0,4 m 0,0 m 0,2 0,4 m 0,0 m 0,2 0,2.875 1.125,0 m 0,0 m 2,0 4,0 m 0,0 m 2,0 4,0 m 0,0 m 2,0 4,0 m 0,0 m 2,0 4,0 m 0,0 m 2,0 4,0 m 0,0 m 2,0 4,0 m 0,0 m 2,0 4,0 m 0,0 m 2,0 4,0 m 0,0 m 2,0 4,0 m 0,0 m 2,0 4,0 m 0,0 m 2,0 4,0 m 0,0 m 2,0 4,0 m 0,0 m 2,0 4,0 m 0,0 m 2,0 4,0 m 0,0 m 2,0 4,0 m 0,0 m 2,0 4,0 m 0,0 m 2,0 4,0 m 0,0 m 2,0 4,0 m 0,0 m 2,0 4,0 m 0,0 m 2,0 4,0 m 0,0 m 2,0 4,0 m 0,0 m 2,0 4,0 m 0,0 m 2,0 4,0 m 0,0 m 2,0 4,0 m 0,0 m 2,0 4,0 m 0,0 m 2,0 4,0 m 0,0 m 2,0 4,0 m 0,0 m 2,0 4,0 m 0,0 m 2,0 4,0 m 0,0 m 2,0 4,0 m 0,0 m 2,0 4,0 m 0,0 m 2,0 4,0 m 0,0 m 2,0 4,0 m 0,0 m 2,0 4,0 m 0,0 m 2,0 4,0 m 0,0 m 2,0 4,0 m 0,0 m 2,0 4,0 m 0,0 m 2,0 4,0 m 0,0 m 2,0 4,0 m 0,0 m 2,0 4,0 m 0,0 m 2,0 4,0 m 0,0 m 2,0 4,0 m 0,0 m 2,0 4,0 m 0,0 m 2,0 4,0 m 0,0 m 2,0 4,0 m 0,0 m 2,0 4,0 m 0,0 m 2,0 4,0 m 0,0 M 291,70.2 l 0,-4 m 0,0 m 0,-2 0,-4 m 0,0 m 0,-2 0,-4 m 0,0 m 0,-2 0,-4 m 0,0 m 0,-2 0,-4 m 0,0 m 0,-2 0,-4 m 0,0 m 0,-2 0,-4 m 0,0 m 0,-2 0,-4 m 0,0 m 0,-2 0,-4 m 0,0 m 0,-2 0,-4 m 0,0 m 0,-2 0,-4 m 0,0 m 0,-2 0,-2.025 -1.975,0 m 0,0 m -2,0 -4,0 m 0,0 m -2,0 -4,0 m 0,0 m -2,0 -4,0 m 0,0 m -2,0 -4,0 m 0,0 m -2,0 -4,0 m 0,0 m -2,0 -4,0 m 0,0 m -2,0 -4,0 m 0,0 m -2,0 -4,0 m 0,0 m -2,0 -4,0 m 0,0 m -2,0 -4,0 m 0,0 m -2,0 -4,0 m 0,0 m -2,0 -4,0 m 0,0 m -2,0 -4,0 m 0,0 m -2,0 -4,0 m 0,0 m -2,0 -4,0 m 0,0 m -2,0 -4,0 m 0,0 m -2,0 -4,0 m 0,0 m -2,0 -4,0 m 0,0 m -2,0 -4,0 m 0,0 m -2,0 -4,0 m 0,0 m -2,0 -4,0 m 0,0 m -2,0 -4,0 m 0,0 m -2,0 -4,0 m 0,0 m -2,0 -4,0 m 0,0 m -2,0 -4,0 m 0,0 m -2,0 -4,0 m 0,0 m -2,0 -4,0 m 0,0 m -2,0 -4,0 m 0,0 m -2,0 -4,0 m 0,0 m -2,0 -4,0 m 0,0 m -2,0 -4,0 m 0,0 m -2,0 -4,0 m 0,0 m -2,0 -4,0 m 0,0 m -2,0 -4,0 m 0,0 m -2,0 -4,0 m 0,0 m -2,0 -4,0 m 0,0 m -2,0 -4,0 m 0,0 m -2,0 -4,0 m 0,0 m -2,0 -4,0 m 0,0 m -2,0 -4,0 m 0,0 m -2,0 -4,0 m 0,0 m -2,0 -4,0 m 0,0 m -2,0 -4,0 m 0,0 m -2,0 -4,0 m 0,0 m -2,0 -4,0 m 0,0 m -2,0 -4,0 m 0,0 m -2,0 -2.025,0 z"
                 id="path118"
                 style="opacity:0;fill:none;stroke:#3c7626;stroke-width:2;stroke-miterlimit:10" />
            </g>
          </g>
        </g>
      </g>
    </g>
    <g
       transform="translate(105.15789,139.5)"
       id="g120">
      <text
         x="0"
         y="11"
         id="text122"
         style="font-size:12px;font-style:normal;font-weight:normal;text-decoration:none;fill:#000000;stroke:none;font-family:Arial">dit4c-platform-highcommand</text>
    </g>
    <g
       transform="translate(440,137.5)"
       id="g124">
      <g
         id="g126">
        <g
           transform="scale(3,0.725)"
           id="g128">
          <g
             id="g130">
            <path
               d="m 0,0 100,0 q 0,0 0,0 l 0,100 q 0,0 0,0 L 0,100 q 0,0 0,0 L 0,0 q 0,0 0,0 z"
               id="path132"
               style="fill:#cfe2f3;stroke:none" />
            <g
               transform="scale(0.33333333,1.3793103)"
               id="g134">
              <path
                 d="m 0,0 300,0 q 0,0 0,0 l 0,72.5 q 0,0 0,0 l -300,0 q 0,0 0,0 L 0,0 q 0,0 0,0 z"
                 id="path136"
                 style="fill:none;stroke:none" />
              <path
                 d="m 0,0 m 0,0 300,0 q 0,0 0,0 l 0,72.5 q 0,0 0,0 l -300,0 q 0,0 0,0 L 0,0 q 0,0 0,0 z"
                 id="path138"
                 style="fill:none;stroke:#333333;stroke-width:2;stroke-miterlimit:10" />
            </g>
          </g>
          <g
             id="g140">
            <g
               transform="scale(0.33333333,1.3793103)"
               id="g142">
              <path
                 d="m 6,1.45 0,68.875 285,0 0,-68.15 -282,0 z"
                 id="path144"
                 style="opacity:0;fill:#000000;fill-opacity:0;stroke:none" />
              <path
                 d="m 6,1.45 m 0,0 0,4 m 0,0 m 0,2 0,4 m 0,0 m 0,2 0,4 m 0,0 m 0,2 0,4 m 0,0 m 0,2 0,4 m 0,0 m 0,2 0,4 m 0,0 m 0,2 0,4 m 0,0 m 0,2 0,4 m 0,0 m 0,2 0,4 m 0,0 m 0,2 0,4 m 0,0 m 0,2 0,4 m 0,0 m 0,2 0,2.875 1.125,0 m 0,0 m 2,0 4,0 m 0,0 m 2,0 4,0 m 0,0 m 2,0 4,0 m 0,0 m 2,0 4,0 m 0,0 m 2,0 4,0 m 0,0 m 2,0 4,0 m 0,0 m 2,0 4,0 m 0,0 m 2,0 4,0 m 0,0 m 2,0 4,0 m 0,0 m 2,0 4,0 m 0,0 m 2,0 4,0 m 0,0 m 2,0 4,0 m 0,0 m 2,0 4,0 m 0,0 m 2,0 4,0 m 0,0 m 2,0 4,0 m 0,0 m 2,0 4,0 m 0,0 m 2,0 4,0 m 0,0 m 2,0 4,0 m 0,0 m 2,0 4,0 m 0,0 m 2,0 4,0 m 0,0 m 2,0 4,0 m 0,0 m 2,0 4,0 m 0,0 m 2,0 4,0 m 0,0 m 2,0 4,0 m 0,0 m 2,0 4,0 m 0,0 m 2,0 4,0 m 0,0 m 2,0 4,0 m 0,0 m 2,0 4,0 m 0,0 m 2,0 4,0 m 0,0 m 2,0 4,0 m 0,0 m 2,0 4,0 m 0,0 m 2,0 4,0 m 0,0 m 2,0 4,0 m 0,0 m 2,0 4,0 m 0,0 m 2,0 4,0 m 0,0 m 2,0 4,0 m 0,0 m 2,0 4,0 m 0,0 m 2,0 4,0 m 0,0 m 2,0 4,0 m 0,0 m 2,0 4,0 m 0,0 m 2,0 4,0 m 0,0 m 2,0 4,0 m 0,0 m 2,0 4,0 m 0,0 m 2,0 4,0 m 0,0 m 2,0 4,0 m 0,0 m 2,0 4,0 m 0,0 m 2,0 4,0 m 0,0 M 291,70.2 l 0,-4 m 0,0 m 0,-2 0,-4 m 0,0 m 0,-2 0,-4 m 0,0 m 0,-2 0,-4 m 0,0 m 0,-2 0,-4 m 0,0 m 0,-2 0,-4 m 0,0 m 0,-2 0,-4 m 0,0 m 0,-2 0,-4 m 0,0 m 0,-2 0,-4 m 0,0 m 0,-2 0,-4 m 0,0 m 0,-2 0,-4 m 0,0 m 0,-2 0,-2.025 -1.975,0 m 0,0 m -2,0 -4,0 m 0,0 m -2,0 -4,0 m 0,0 m -2,0 -4,0 m 0,0 m -2,0 -4,0 m 0,0 m -2,0 -4,0 m 0,0 m -2,0 -4,0 m 0,0 m -2,0 -4,0 m 0,0 m -2,0 -4,0 m 0,0 m -2,0 -4,0 m 0,0 m -2,0 -4,0 m 0,0 m -2,0 -4,0 m 0,0 m -2,0 -4,0 m 0,0 m -2,0 -4,0 m 0,0 m -2,0 -4,0 m 0,0 m -2,0 -4,0 m 0,0 m -2,0 -4,0 m 0,0 m -2,0 -4,0 m 0,0 m -2,0 -4,0 m 0,0 m -2,0 -4,0 m 0,0 m -2,0 -4,0 m 0,0 m -2,0 -4,0 m 0,0 m -2,0 -4,0 m 0,0 m -2,0 -4,0 m 0,0 m -2,0 -4,0 m 0,0 m -2,0 -4,0 m 0,0 m -2,0 -4,0 m 0,0 m -2,0 -4,0 m 0,0 m -2,0 -4,0 m 0,0 m -2,0 -4,0 m 0,0 m -2,0 -4,0 m 0,0 m -2,0 -4,0 m 0,0 m -2,0 -4,0 m 0,0 m -2,0 -4,0 m 0,0 m -2,0 -4,0 m 0,0 m -2,0 -4,0 m 0,0 m -2,0 -4,0 m 0,0 m -2,0 -4,0 m 0,0 m -2,0 -4,0 m 0,0 m -2,0 -4,0 m 0,0 m -2,0 -4,0 m 0,0 m -2,0 -4,0 m 0,0 m -2,0 -4,0 m 0,0 m -2,0 -4,0 m 0,0 m -2,0 -4,0 m 0,0 m -2,0 -4,0 m 0,0 m -2,0 -4,0 m 0,0 m -2,0 -2.025,0 z"
                 id="path146"
                 style="opacity:0;fill:none;stroke:#3c7626;stroke-width:2;stroke-miterlimit:10" />
            </g>
          </g>
        </g>
      </g>
    </g>
    <g
       transform="translate(445.15789,139.5)"
       id="g148">
      <text
         x="0"
         y="11"
         id="text150"
         style="font-size:12px;font-style:normal;font-weight:normal;text-decoration:none;fill:#000000;stroke:none;font-family:Arial">dit4c-platform-hipache</text>
    </g>
    <g
       transform="translate(257.5,63.75)"
       id="g152">
      <g
         id="g154">
        <g
           transform="scale(3.25,0.3)"
           id="g156">
          <g
             id="g158">
            <path
               d="m 10,0 80,0 q 10,0 10,10 l 0,80 q 0,10 -10,10 l -80,0 Q 0,100 0,90 L 0,10 Q 0,0 10,0 z"
               id="path160"
               style="fill:none;stroke:none" />
            <g
               transform="scale(0.30769231,3.3333333)"
               id="g162">
              <path
                 d="m 10,0 305,0 q 10,0 10,10 l 0,10 q 0,10 -10,10 L 10,30 Q 0,30 0,20 L 0,10 Q 0,0 10,0 z"
                 id="path164"
                 style="fill:#ffffff;stroke:none" />
              <path
                 d="m 10,0 m 0,0 305,0 q 10,0 10,10 l 0,10 q 0,10 -10,10 L 10,30 Q 0,30 0,20 L 0,10 Q 0,0 10,0 z"
                 id="path166"
                 style="fill:none;stroke:#333333;stroke-width:2;stroke-miterlimit:10" />
            </g>
          </g>
        </g>
      </g>
    </g>
    <g
       transform="translate(266,71.75)"
       id="g168">
      <text
         x="90"
         y="11"
         id="text170"
         style="font-size:12px;font-style:normal;font-weight:normal;text-decoration:none;fill:#000000;stroke:none;font-family:Arial">nginx (SSL termination)</text>
    </g>
    <g
       transform="translate(120,160.875)"
       id="g172">
      <g
         id="g174">
        <g
           transform="scale(2.6,0.4)"
           id="g176">
          <g
             id="g178">
            <path
               d="m 10,0 80,0 q 10,0 10,10 l 0,80 q 0,10 -10,10 l -80,0 Q 0,100 0,90 L 0,10 Q 0,0 10,0 z"
               id="path180"
               style="fill:none;stroke:none" />
            <g
               transform="scale(0.38461538,2.5)"
               id="g182">
              <path
                 d="m 10,0 240,0 q 10,0 10,10 l 0,20 q 0,10 -10,10 L 10,40 Q 0,40 0,30 L 0,10 Q 0,0 10,0 z"
                 id="path184"
                 style="fill:#ffffff;stroke:none" />
              <path
                 d="m 10,0 m 0,0 240,0 q 10,0 10,10 l 0,20 q 0,10 -10,10 L 10,40 Q 0,40 0,30 L 0,10 Q 0,0 10,0 z"
                 id="path186"
                 style="fill:none;stroke:#333333;stroke-width:2;stroke-miterlimit:10" />
            </g>
          </g>
        </g>
      </g>
    </g>
    <g
       transform="translate(127.2,166.875)"
       id="g188">
      <text
         x="82.800003"
         y="11"
         id="text190"
         style="font-size:12px;font-style:normal;font-weight:normal;text-decoration:none;fill:#000000;stroke:none;font-family:Arial">highcommand</text>
      <text
         x="28.299999"
         y="25"
         id="text192"
         style="font-size:12px;font-style:normal;font-weight:normal;text-decoration:none;fill:#000000;stroke:none;font-family:Arial"> </text>
      <text
         x="31.299999"
         y="25"
         id="text194"
         style="font-size:12px;font-style:normal;font-weight:normal;text-decoration:none;fill:#000000;stroke:none;font-family:Arial">(authentication and access portal)</text>
    </g>
    <g
       transform="translate(460,160.875)"
       id="g196">
      <g
         id="g198">
        <g
           transform="scale(2.6,0.4)"
           id="g200">
          <g
             id="g202">
            <path
               d="m 10,0 80,0 q 10,0 10,10 l 0,80 q 0,10 -10,10 l -80,0 Q 0,100 0,90 L 0,10 Q 0,0 10,0 z"
               id="path204"
               style="fill:none;stroke:none" />
            <g
               transform="scale(0.38461538,2.5)"
               id="g206">
              <path
                 d="m 10,0 240,0 q 10,0 10,10 l 0,20 q 0,10 -10,10 L 10,40 Q 0,40 0,30 L 0,10 Q 0,0 10,0 z"
                 id="path208"
                 style="fill:#ffffff;stroke:none" />
              <path
                 d="m 10,0 m 0,0 240,0 q 10,0 10,10 l 0,20 q 0,10 -10,10 L 10,40 Q 0,40 0,30 L 0,10 Q 0,0 10,0 z"
                 id="path210"
                 style="fill:none;stroke:#333333;stroke-width:2;stroke-miterlimit:10" />
            </g>
          </g>
        </g>
      </g>
    </g>
    <g
       transform="translate(467.2,166.875)"
       id="g212">
      <text
         x="100.8"
         y="11"
         id="text214"
         style="font-size:12px;font-style:normal;font-weight:normal;text-decoration:none;fill:#000000;stroke:none;font-family:Arial">hipache</text>
      <text
         x="27.299999"
         y="25"
         id="text216"
         style="font-size:12px;font-style:normal;font-weight:normal;text-decoration:none;fill:#000000;stroke:none;font-family:Arial"> </text>
      <text
         x="30.299999"
         y="25"
         id="text218"
         style="font-size:12px;font-style:normal;font-weight:normal;text-decoration:none;fill:#000000;stroke:none;font-family:Arial">(proxying to correct compute node</text>
      <text
         x="214.3"
         y="25"
         id="text220"
         style="font-size:12px;font-style:normal;font-weight:normal;text-decoration:none;fill:#000000;stroke:none;font-family:Arial">)</text>
    </g>
    <g
       transform="translate(100,243.75)"
       id="g222">
      <g
         id="g224">
        <g
           transform="scale(2,0.725)"
           id="g226">
          <g
             id="g228">
            <path
               d="m 0,0 100,0 q 0,0 0,0 l 0,100 q 0,0 0,0 L 0,100 q 0,0 0,0 L 0,0 q 0,0 0,0 z"
               id="path230"
               style="fill:#cfe2f3;stroke:none" />
            <g
               transform="scale(0.5,1.3793103)"
               id="g232">
              <path
                 d="m 0,0 200,0 q 0,0 0,0 l 0,72.5 q 0,0 0,0 l -200,0 q 0,0 0,0 L 0,0 q 0,0 0,0 z"
                 id="path234"
                 style="fill:none;stroke:none" />
              <path
                 d="m 0,0 m 0,0 200,0 q 0,0 0,0 l 0,72.5 q 0,0 0,0 l -200,0 q 0,0 0,0 L 0,0 q 0,0 0,0 z"
                 id="path236"
                 style="fill:none;stroke:#333333;stroke-width:2;stroke-miterlimit:10" />
            </g>
          </g>
          <g
             id="g238">
            <g
               transform="scale(0.5,1.3793103)"
               id="g240">
              <path
                 d="m 4,1.45 0,68.875 190,0 0,-68.15 -188,0 z"
                 id="path242"
                 style="opacity:0;fill:#000000;fill-opacity:0;stroke:none" />
              <path
                 d="m 4,1.45 m 0,0 0,4 m 0,0 m 0,2 0,4 m 0,0 m 0,2 0,4 m 0,0 m 0,2 0,4 m 0,0 m 0,2 0,4 m 0,0 m 0,2 0,4 m 0,0 m 0,2 0,4 m 0,0 m 0,2 0,4 m 0,0 m 0,2 0,4 m 0,0 m 0,2 0,4 m 0,0 m 0,2 0,4 m 0,0 m 0,2 0,2.875 1.125,0 m 0,0 m 2,0 4,0 m 0,0 m 2,0 4,0 m 0,0 m 2,0 4,0 m 0,0 m 2,0 4,0 m 0,0 m 2,0 4,0 m 0,0 m 2,0 4,0 m 0,0 m 2,0 4,0 m 0,0 m 2,0 4,0 m 0,0 m 2,0 4,0 m 0,0 m 2,0 4,0 m 0,0 m 2,0 4,0 m 0,0 m 2,0 4,0 m 0,0 m 2,0 4,0 m 0,0 m 2,0 4,0 m 0,0 m 2,0 4,0 m 0,0 m 2,0 4,0 m 0,0 m 2,0 4,0 m 0,0 m 2,0 4,0 m 0,0 m 2,0 4,0 m 0,0 m 2,0 4,0 m 0,0 m 2,0 4,0 m 0,0 m 2,0 4,0 m 0,0 m 2,0 4,0 m 0,0 m 2,0 4,0 m 0,0 m 2,0 4,0 m 0,0 m 2,0 4,0 m 0,0 m 2,0 4,0 m 0,0 m 2,0 4,0 m 0,0 m 2,0 4,0 m 0,0 m 2,0 4,0 m 0,0 m 2,0 4,0 m 0,0 m 2,0 0.875,0 0,-3.125 m 0,0 m 0,-2 0,-4 m 0,0 m 0,-2 0,-4 m 0,0 m 0,-2 0,-4 m 0,0 m 0,-2 0,-4 m 0,0 m 0,-2 0,-4 m 0,0 m 0,-2 0,-4 m 0,0 m 0,-2 0,-4 m 0,0 m 0,-2 0,-4 m 0,0 m 0,-2 0,-4 m 0,0 m 0,-2 0,-4 m 0,0 m 0,-2 0,-3.025 -0.975,0 m 0,0 m -2,0 -4,0 m 0,0 m -2,0 -4,0 m 0,0 m -2,0 -4,0 m 0,0 m -2,0 -4,0 m 0,0 m -2,0 -4,0 m 0,0 m -2,0 -4,0 m 0,0 m -2,0 -4,0 m 0,0 m -2,0 -4,0 m 0,0 m -2,0 -4,0 m 0,0 m -2,0 -4,0 m 0,0 m -2,0 -4,0 m 0,0 m -2,0 -4,0 m 0,0 m -2,0 -4,0 m 0,0 m -2,0 -4,0 m 0,0 m -2,0 -4,0 m 0,0 m -2,0 -4,0 m 0,0 m -2,0 -4,0 m 0,0 m -2,0 -4,0 m 0,0 m -2,0 -4,0 m 0,0 m -2,0 -4,0 m 0,0 m -2,0 -4,0 m 0,0 m -2,0 -4,0 m 0,0 m -2,0 -4,0 m 0,0 m -2,0 -4,0 m 0,0 m -2,0 -4,0 m 0,0 m -2,0 -4,0 m 0,0 m -2,0 -4,0 m 0,0 m -2,0 -4,0 m 0,0 m -2,0 -4,0 m 0,0 m -2,0 -4,0 m 0,0 m -2,0 -4,0 m 0,0 z"
                 id="path244"
                 style="opacity:0;fill:none;stroke:#3c7626;stroke-width:2;stroke-miterlimit:10" />
            </g>
          </g>
        </g>
      </g>
    </g>
    <g
       transform="translate(104.10526,245.75)"
       id="g246">
      <text
         x="0"
         y="11"
         id="text248"
         style="font-size:12px;font-style:normal;font-weight:normal;text-decoration:none;fill:#000000;stroke:none;font-family:Arial">couchdb</text>
    </g>
    <g
       transform="translate(325,243.75)"
       id="g250">
      <g
         id="g252">
        <g
           transform="scale(1.9,0.725)"
           id="g254">
          <g
             id="g256">
            <path
               d="m 0,0 100,0 q 0,0 0,0 l 0,100 q 0,0 0,0 L 0,100 q 0,0 0,0 L 0,0 q 0,0 0,0 z"
               id="path258"
               style="fill:#cfe2f3;stroke:none" />
            <g
               transform="scale(0.52631579,1.3793103)"
               id="g260">
              <path
                 d="m 0,0 190,0 q 0,0 0,0 l 0,72.5 q 0,0 0,0 l -190,0 q 0,0 0,0 L 0,0 q 0,0 0,0 z"
                 id="path262"
                 style="fill:none;stroke:none" />
              <path
                 d="m 0,0 m 0,0 190,0 q 0,0 0,0 l 0,72.5 q 0,0 0,0 l -190,0 q 0,0 0,0 L 0,0 q 0,0 0,0 z"
                 id="path264"
                 style="fill:none;stroke:#333333;stroke-width:2;stroke-miterlimit:10" />
            </g>
          </g>
          <g
             id="g266">
            <g
               transform="scale(0.52631579,1.3793103)"
               id="g268">
              <path
                 d="m 3.8,1.45 0,68.875 180.5,0 0,-68.15 -178.6,0 z"
                 id="path270"
                 style="opacity:0;fill:#000000;fill-opacity:0;stroke:none" />
              <path
                 d="m 3.8,1.45 m 0,0 0,4 m 0,0 m 0,2 0,4 m 0,0 m 0,2 0,4 m 0,0 m 0,2 0,4 m 0,0 m 0,2 0,4 m 0,0 m 0,2 0,4 m 0,0 m 0,2 0,4 m 0,0 m 0,2 0,4 m 0,0 m 0,2 0,4 m 0,0 m 0,2 0,4 m 0,0 m 0,2 0,4 m 0,0 m 0,2 0,2.875 1.125,0 m 0,0 m 2,0 4,0 m 0,0 m 2,0 4,0 m 0,0 m 2,0 4,0 m 0,0 m 2,0 4,0 m 0,0 m 2,0 4,0 m 0,0 m 2,0 4,0 m 0,0 m 2,0 4,0 m 0,0 m 2,0 4,0 m 0,0 m 2,0 4,0 m 0,0 m 2,0 4,0 m 0,0 m 2,0 4,0 m 0,0 m 2,0 4,0 m 0,0 m 2,0 4,0 m 0,0 m 2,0 4,0 m 0,0 m 2,0 4,0 m 0,0 m 2,0 4,0 m 0,0 m 2,0 4,0 m 0,0 m 2,0 4,0 m 0,0 m 2,0 4,0 m 0,0 m 2,0 4,0 m 0,0 m 2,0 4,0 m 0,0 m 2,0 4,0 m 0,0 m 2,0 4,0 m 0,0 m 2,0 4,0 m 0,0 m 2,0 4,0 m 0,0 m 2,0 4,0 m 0,0 m 2,0 4,0 m 0,0 m 2,0 4,0 m 0,0 m 2,0 4,0 m 0,0 m 2,0 3.375,0 0,-0.625 m 0,0 m 0,-2 0,-4 m 0,0 m 0,-2 0,-4 m 0,0 m 0,-2 0,-4 m 0,0 m 0,-2 0,-4 m 0,0 m 0,-2 0,-4 m 0,0 m 0,-2 0,-4 m 0,0 m 0,-2 0,-4 m 0,0 m 0,-2 0,-4 m 0,0 m 0,-2 0,-4 m 0,0 m 0,-2 0,-4 m 0,0 m 0,-2 0,-4 m 0,0 m -0.475,-1.525 -4,0 m 0,0 m -2,0 -4,0 m 0,0 m -2,0 -4,0 m 0,0 m -2,0 -4,0 m 0,0 m -2,0 -4,0 m 0,0 m -2,0 -4,0 m 0,0 m -2,0 -4,0 m 0,0 m -2,0 -4,0 m 0,0 m -2,0 -4,0 m 0,0 m -2,0 -4,0 m 0,0 m -2,0 -4,0 m 0,0 m -2,0 -4,0 m 0,0 m -2,0 -4,0 m 0,0 m -2,0 -4,0 m 0,0 m -2,0 -4,0 m 0,0 m -2,0 -4,0 m 0,0 m -2,0 -4,0 m 0,0 m -2,0 -4,0 m 0,0 m -2,0 -4,0 m 0,0 m -2,0 -4,0 m 0,0 m -2,0 -4,0 m 0,0 m -2,0 -4,0 m 0,0 m -2,0 -4,0 m 0,0 m -2,0 -4,0 m 0,0 m -2,0 -4,0 m 0,0 m -2,0 -4,0 m 0,0 m -2,0 -4,0 m 0,0 m -2,0 -4,0 m 0,0 m -2,0 -4,0 m 0,0 m -2,0 -4,0 m 0,0 z"
                 id="path272"
                 style="opacity:0;fill:none;stroke:#3c7626;stroke-width:2;stroke-miterlimit:10" />
            </g>
          </g>
        </g>
      </g>
    </g>
    <g
       transform="translate(329,245.75)"
       id="g274">
      <text
         x="0"
         y="11"
         id="text276"
         style="font-size:12px;font-style:normal;font-weight:normal;text-decoration:none;fill:#000000;stroke:none;font-family:Arial">etcd</text>
    </g>
    <g
       transform="translate(120,262.5)"
       id="g278">
      <g
         id="g280">
        <g
           transform="scale(1.6,0.4)"
           id="g282">
          <g
             id="g284">
            <path
               d="m 10,0 80,0 q 10,0 10,10 l 0,80 q 0,10 -10,10 l -80,0 Q 0,100 0,90 L 0,10 Q 0,0 10,0 z"
               id="path286"
               style="fill:none;stroke:none" />
            <g
               transform="scale(0.625,2.5)"
               id="g288">
              <path
                 d="m 10,0 140,0 q 10,0 10,10 l 0,20 q 0,10 -10,10 L 10,40 Q 0,40 0,30 L 0,10 Q 0,0 10,0 z"
                 id="path290"
                 style="fill:#ffffff;stroke:none" />
              <path
                 d="m 10,0 m 0,0 140,0 q 10,0 10,10 l 0,20 q 0,10 -10,10 L 10,40 Q 0,40 0,30 L 0,10 Q 0,0 10,0 z"
                 id="path292"
                 style="fill:none;stroke:#333333;stroke-width:2;stroke-miterlimit:10" />
            </g>
          </g>
        </g>
      </g>
    </g>
    <g
       transform="translate(125.2,268.5)"
       id="g294">
      <text
         x="51.299999"
         y="11"
         id="text296"
         style="font-size:12px;font-style:normal;font-weight:normal;text-decoration:none;fill:#000000;stroke:none;font-family:Arial">couchdb</text>
      <text
         x="27.799999"
         y="25"
         id="text298"
         style="font-size:12px;font-style:normal;font-weight:normal;text-decoration:none;fill:#000000;stroke:none;font-family:Arial">(portal database)</text>
    </g>
    <g
       transform="translate(340,262.5)"
       id="g300">
      <g
         id="g302">
        <g
           transform="scale(1.6,0.4)"
           id="g304">
          <g
             id="g306">
            <path
               d="m 10,0 80,0 q 10,0 10,10 l 0,80 q 0,10 -10,10 l -80,0 Q 0,100 0,90 L 0,10 Q 0,0 10,0 z"
               id="path308"
               style="fill:none;stroke:none" />
            <g
               transform="scale(0.625,2.5)"
               id="g310">
              <path
                 d="m 10,0 140,0 q 10,0 10,10 l 0,20 q 0,10 -10,10 L 10,40 Q 0,40 0,30 L 0,10 Q 0,0 10,0 z"
                 id="path312"
                 style="fill:#ffffff;stroke:none" />
              <path
                 d="m 10,0 m 0,0 140,0 q 10,0 10,10 l 0,20 q 0,10 -10,10 L 10,40 Q 0,40 0,30 L 0,10 Q 0,0 10,0 z"
                 id="path314"
                 style="fill:none;stroke:#333333;stroke-width:2;stroke-miterlimit:10" />
            </g>
          </g>
        </g>
      </g>
    </g>
    <g
       transform="translate(345.2,268.5)"
       id="g316">
      <text
         x="58.299999"
         y="11"
         id="text318"
         style="font-size:12px;font-style:normal;font-weight:normal;text-decoration:none;fill:#000000;stroke:none;font-family:Arial">etcd</text>
      <text
         x="11.8"
         y="25"
         id="text320"
         style="font-size:12px;font-style:normal;font-weight:normal;text-decoration:none;fill:#000000;stroke:none;font-family:Arial">(hipache configuration)</text>
    </g>
    <g
       transform="translate(380,382.5)"
       id="g322">
      <g
         id="g324">
        <g
           transform="scale(3.6,0.725)"
           id="g326">
          <g
             id="g328">
            <path
               d="m 0,0 100,0 q 0,0 0,0 l 0,100 q 0,0 0,0 L 0,100 q 0,0 0,0 L 0,0 q 0,0 0,0 z"
               id="path330"
               style="fill:#d9ead3;stroke:none" />
            <g
               transform="scale(0.27777778,1.3793103)"
               id="g332">
              <path
                 d="m 0,0 360,0 q 0,0 0,0 l 0,72.5 q 0,0 0,0 l -360,0 q 0,0 0,0 L 0,0 q 0,0 0,0 z"
                 id="path334"
                 style="fill:none;stroke:none" />
              <path
                 d="m 0,0 m 0,0 360,0 q 0,0 0,0 l 0,72.5 q 0,0 0,0 l -360,0 q 0,0 0,0 L 0,0 q 0,0 0,0 z"
                 id="path336"
                 style="fill:none;stroke:#333333;stroke-width:2;stroke-miterlimit:10" />
            </g>
          </g>
          <g
             id="g338">
            <g
               transform="scale(0.27777778,1.3793103)"
               id="g340">
              <path
                 d="m 7.2,1.45 0,68.875 342,0 0,-68.15 -338.4,0 z"
                 id="path342"
                 style="opacity:0;fill:#000000;fill-opacity:0;stroke:none" />
              <path
                 d="m 7.2,1.45 m 0,0 0,4 m 0,0 m 0,2 0,4 m 0,0 m 0,2 0,4 m 0,0 m 0,2 0,4 m 0,0 m 0,2 0,4 m 0,0 m 0,2 0,4 m 0,0 m 0,2 0,4 m 0,0 m 0,2 0,4 m 0,0 m 0,2 0,4 m 0,0 m 0,2 0,4 m 0,0 m 0,2 0,4 m 0,0 m 0,2 0,2.875 1.125,0 m 0,0 m 2,0 4,0 m 0,0 m 2,0 4,0 m 0,0 m 2,0 4,0 m 0,0 m 2,0 4,0 m 0,0 m 2,0 4,0 m 0,0 m 2,0 4,0 m 0,0 m 2,0 4,0 m 0,0 m 2,0 4,0 m 0,0 m 2,0 4,0 m 0,0 m 2,0 4,0 m 0,0 m 2,0 4,0 m 0,0 m 2,0 4,0 m 0,0 m 2,0 4,0 m 0,0 m 2,0 4,0 m 0,0 m 2,0 4,0 m 0,0 m 2,0 4,0 m 0,0 m 2,0 4,0 m 0,0 m 2,0 4,0 m 0,0 m 2,0 4,0 m 0,0 m 2,0 4,0 m 0,0 m 2,0 4,0 m 0,0 m 2,0 4,0 m 0,0 m 2,0 4,0 m 0,0 m 2,0 4,0 m 0,0 m 2,0 4,0 m 0,0 m 2,0 4,0 m 0,0 m 2,0 4,0 m 0,0 m 2,0 4,0 m 0,0 m 2,0 4,0 m 0,0 m 2,0 4,0 m 0,0 m 2,0 4,0 m 0,0 m 2,0 4,0 m 0,0 m 2,0 4,0 m 0,0 m 2,0 4,0 m 0,0 m 2,0 4,0 m 0,0 m 2,0 4,0 m 0,0 m 2,0 4,0 m 0,0 m 2,0 4,0 m 0,0 m 2,0 4,0 m 0,0 m 2,0 4,0 m 0,0 m 2,0 4,0 m 0,0 m 2,0 4,0 m 0,0 m 2,0 4,0 m 0,0 m 2,0 4,0 m 0,0 m 2,0 4,0 m 0,0 m 2,0 4,0 m 0,0 m 2,0 4,0 m 0,0 m 2,0 4,0 m 0,0 m 2,0 4,0 m 0,0 m 2,0 4,0 m 0,0 m 2,0 4,0 m 0,0 m 2,0 4,0 m 0,0 m 2,0 4,0 m 0,0 m 2,0 4,0 m 0,0 m 2,0 4,0 m 0,0 m 2,0 4,0 m 0,0 m 2,0 2.875,0 0,-1.125 m 0,0 m 0,-2 0,-4 m 0,0 m 0,-2 0,-4 m 0,0 m 0,-2 0,-4 m 0,0 m 0,-2 0,-4 m 0,0 m 0,-2 0,-4 m 0,0 m 0,-2 0,-4 m 0,0 m 0,-2 0,-4 m 0,0 m 0,-2 0,-4 m 0,0 m 0,-2 0,-4 m 0,0 m 0,-2 0,-4 m 0,0 m 0,-2 0,-4 m 0,0 m -0.975,-1.025 -4,0 m 0,0 m -2,0 -4,0 m 0,0 m -2,0 -4,0 m 0,0 m -2,0 -4,0 m 0,0 m -2,0 -4,0 m 0,0 m -2,0 -4,0 m 0,0 m -2,0 -4,0 m 0,0 m -2,0 -4,0 m 0,0 m -2,0 -4,0 m 0,0 m -2,0 -4,0 m 0,0 m -2,0 -4,0 m 0,0 m -2,0 -4,0 m 0,0 m -2,0 -4,0 m 0,0 m -2,0 -4,0 m 0,0 m -2,0 -4,0 m 0,0 m -2,0 -4,0 m 0,0 m -2,0 -4,0 m 0,0 m -2,0 -4,0 m 0,0 m -2,0 -4,0 m 0,0 m -2,0 -4,0 m 0,0 m -2,0 -4,0 m 0,0 m -2,0 -4,0 m 0,0 m -2,0 -4,0 m 0,0 m -2,0 -4,0 m 0,0 m -2,0 -4,0 m 0,0 m -2,0 -4,0 m 0,0 m -2,0 -4,0 m 0,0 m -2,0 -4,0 m 0,0 m -2,0 -4,0 m 0,0 m -2,0 -4,0 m 0,0 m -2,0 -4,0 m 0,0 m -2,0 -4,0 m 0,0 m -2,0 -4,0 m 0,0 m -2,0 -4,0 m 0,0 m -2,0 -4,0 m 0,0 m -2,0 -4,0 m 0,0 m -2,0 -4,0 m 0,0 m -2,0 -4,0 m 0,0 m -2,0 -4,0 m 0,0 m -2,0 -4,0 m 0,0 m -2,0 -4,0 m 0,0 m -2,0 -4,0 m 0,0 m -2,0 -4,0 m 0,0 m -2,0 -4,0 m 0,0 m -2,0 -4,0 m 0,0 m -2,0 -4,0 m 0,0 m -2,0 -4,0 m 0,0 m -2,0 -4,0 m 0,0 m -2,0 -4,0 m 0,0 m -2,0 -4,0 m 0,0 m -2,0 -4,0 m 0,0 m -2,0 -4,0 m 0,0 m -2,0 -4,0 m 0,0 m -2,0 -4,0 m 0,0 m -2,0 -4,0 m 0,0 m -2,0 -4,0 m 0,0 m -2,0 -1.425,0 z"
                 id="path344"
                 style="opacity:0;fill:none;stroke:#3c7626;stroke-width:2;stroke-miterlimit:10" />
            </g>
          </g>
        </g>
      </g>
    </g>
    <g
       transform="translate(385.78947,384.5)"
       id="g346">
      <text
         x="0"
         y="11"
         id="text348"
         style="font-size:12px;font-style:normal;font-weight:normal;text-decoration:none;fill:#000000;stroke:none;font-family:Arial">dit4c-platform-gatehouse</text>
    </g>
    <g
       transform="translate(400,405.875)"
       id="g350">
      <g
         id="g352">
        <g
           transform="scale(1.4,0.4)"
           id="g354">
          <g
             id="g356">
            <path
               d="m 10,0 80,0 q 10,0 10,10 l 0,80 q 0,10 -10,10 l -80,0 Q 0,100 0,90 L 0,10 Q 0,0 10,0 z"
               id="path358"
               style="fill:none;stroke:none" />
            <g
               transform="scale(0.71428571,2.5)"
               id="g360">
              <path
                 d="m 10,0 120,0 q 10,0 10,10 l 0,20 q 0,10 -10,10 L 10,40 Q 0,40 0,30 L 0,10 Q 0,0 10,0 z"
                 id="path362"
                 style="fill:#ffffff;stroke:none" />
              <path
                 d="m 10,0 m 0,0 120,0 q 10,0 10,10 l 0,20 q 0,10 -10,10 L 10,40 Q 0,40 0,30 L 0,10 Q 0,0 10,0 z"
                 id="path364"
                 style="fill:none;stroke:#333333;stroke-width:2;stroke-miterlimit:10" />
            </g>
          </g>
        </g>
      </g>
    </g>
    <g
       transform="translate(404.8,411.875)"
       id="g366">
      <text
         x="35.700001"
         y="11"
         id="text368"
         style="font-size:12px;font-style:normal;font-weight:normal;text-decoration:none;fill:#000000;stroke:none;font-family:Arial">gatehouse</text>
      <text
         x="19.700001"
         y="25"
         id="text370"
         style="font-size:12px;font-style:normal;font-weight:normal;text-decoration:none;fill:#000000;stroke:none;font-family:Arial"> </text>
      <text
         x="22.700001"
         y="25"
         id="text372"
         style="font-size:12px;font-style:normal;font-weight:normal;text-decoration:none;fill:#000000;stroke:none;font-family:Arial">(access control</text>
      <text
         x="106.7"
         y="25"
         id="text374"
         style="font-size:12px;font-style:normal;font-weight:normal;text-decoration:none;fill:#000000;stroke:none;font-family:Arial">)</text>
    </g>
    <g
       transform="translate(100,382.5)"
       id="g376">
      <g
         id="g378">
        <g
           transform="scale(2.6,0.725)"
           id="g380">
          <g
             id="g382">
            <path
               d="m 0,0 100,0 q 0,0 0,0 l 0,100 q 0,0 0,0 L 0,100 q 0,0 0,0 L 0,0 q 0,0 0,0 z"
               id="path384"
               style="fill:#d9ead3;stroke:none" />
            <g
               transform="scale(0.38461538,1.3793103)"
               id="g386">
              <path
                 d="m 0,0 260,0 q 0,0 0,0 l 0,72.5 q 0,0 0,0 l -260,0 q 0,0 0,0 L 0,0 q 0,0 0,0 z"
                 id="path388"
                 style="fill:none;stroke:none" />
              <path
                 d="m 0,0 m 0,0 260,0 q 0,0 0,0 l 0,72.5 q 0,0 0,0 l -260,0 q 0,0 0,0 L 0,0 q 0,0 0,0 z"
                 id="path390"
                 style="fill:none;stroke:#333333;stroke-width:2;stroke-miterlimit:10" />
            </g>
          </g>
          <g
             id="g392">
            <g
               transform="scale(0.38461538,1.3793103)"
               id="g394">
              <path
                 d="m 5.2,1.45 0,68.875 247,0 0,-68.15 -244.4,0 z"
                 id="path396"
                 style="opacity:0;fill:#000000;fill-opacity:0;stroke:none" />
              <path
                 d="m 5.2,1.45 m 0,0 0,4 m 0,0 m 0,2 0,4 m 0,0 m 0,2 0,4 m 0,0 m 0,2 0,4 m 0,0 m 0,2 0,4 m 0,0 m 0,2 0,4 m 0,0 m 0,2 0,4 m 0,0 m 0,2 0,4 m 0,0 m 0,2 0,4 m 0,0 m 0,2 0,4 m 0,0 m 0,2 0,4 m 0,0 m 0,2 0,2.875 1.125,0 m 0,0 m 2,0 4,0 m 0,0 m 2,0 4,0 m 0,0 m 2,0 4,0 m 0,0 m 2,0 4,0 m 0,0 m 2,0 4,0 m 0,0 m 2,0 4,0 m 0,0 m 2,0 4,0 m 0,0 m 2,0 4,0 m 0,0 m 2,0 4,0 m 0,0 m 2,0 4,0 m 0,0 m 2,0 4,0 m 0,0 m 2,0 4,0 m 0,0 m 2,0 4,0 m 0,0 m 2,0 4,0 m 0,0 m 2,0 4,0 m 0,0 m 2,0 4,0 m 0,0 m 2,0 4,0 m 0,0 m 2,0 4,0 m 0,0 m 2,0 4,0 m 0,0 m 2,0 4,0 m 0,0 m 2,0 4,0 m 0,0 m 2,0 4,0 m 0,0 m 2,0 4,0 m 0,0 m 2,0 4,0 m 0,0 m 2,0 4,0 m 0,0 m 2,0 4,0 m 0,0 m 2,0 4,0 m 0,0 m 2,0 4,0 m 0,0 m 2,0 4,0 m 0,0 m 2,0 4,0 m 0,0 m 2,0 4,0 m 0,0 m 2,0 4,0 m 0,0 m 2,0 4,0 m 0,0 m 2,0 4,0 m 0,0 m 2,0 4,0 m 0,0 m 2,0 4,0 m 0,0 m 2,0 4,0 m 0,0 m 2,0 4,0 m 0,0 m 2,0 4,0 m 0,0 m 2,0 4,0 m 0,0 m 2,0 3.875,0 0,-0.125 m 0,0 m 0,-2 0,-4 m 0,0 m 0,-2 0,-4 m 0,0 m 0,-2 0,-4 m 0,0 m 0,-2 0,-4 m 0,0 m 0,-2 0,-4 m 0,0 m 0,-2 0,-4 m 0,0 m 0,-2 0,-4 m 0,0 m 0,-2 0,-4 m 0,0 m 0,-2 0,-4 m 0,0 m 0,-2 0,-4 m 0,0 m 0,-2 0,-4 m 0,0 m 0,-2 0,-0.025 -3.975,0 m 0,0 m -2,0 -4,0 m 0,0 m -2,0 -4,0 m 0,0 m -2,0 -4,0 m 0,0 m -2,0 -4,0 m 0,0 m -2,0 -4,0 m 0,0 m -2,0 -4,0 m 0,0 m -2,0 -4,0 m 0,0 m -2,0 -4,0 m 0,0 m -2,0 -4,0 m 0,0 m -2,0 -4,0 m 0,0 m -2,0 -4,0 m 0,0 m -2,0 -4,0 m 0,0 m -2,0 -4,0 m 0,0 m -2,0 -4,0 m 0,0 m -2,0 -4,0 m 0,0 m -2,0 -4,0 m 0,0 m -2,0 -4,0 m 0,0 m -2,0 -4,0 m 0,0 m -2,0 -4,0 m 0,0 m -2,0 -4,0 m 0,0 m -2,0 -4,0 m 0,0 m -2,0 -4,0 m 0,0 m -2,0 -4,0 m 0,0 m -2,0 -4,0 m 0,0 m -2,0 -4,0 m 0,0 m -2,0 -4,0 m 0,0 m -2,0 -4,0 m 0,0 m -2,0 -4,0 m 0,0 m -2,0 -4,0 m 0,0 m -2,0 -4,0 m 0,0 m -2,0 -4,0 m 0,0 m -2,0 -4,0 m 0,0 m -2,0 -4,0 m 0,0 m -2,0 -4,0 m 0,0 m -2,0 -4,0 m 0,0 m -2,0 -4,0 m 0,0 m -2,0 -4,0 m 0,0 m -2,0 -4,0 m 0,0 m -2,0 -4,0 m 0,0 m -2,0 -4,0 m 0,0 z"
                 id="path398"
                 style="opacity:0;fill:none;stroke:#3c7626;stroke-width:2;stroke-miterlimit:10" />
            </g>
          </g>
        </g>
      </g>
    </g>
    <g
       transform="translate(104.73684,384.5)"
       id="g400">
      <text
         x="0"
         y="11"
         id="text402"
         style="font-size:12px;font-style:normal;font-weight:normal;text-decoration:none;fill:#000000;stroke:none;font-family:Arial">dit4c-platform-machineshop</text>
    </g>
    <g
       transform="translate(120,405.875)"
       id="g404">
      <g
         id="g406">
        <g
           transform="scale(2.2,0.4)"
           id="g408">
          <g
             id="g410">
            <path
               d="m 10,0 80,0 q 10,0 10,10 l 0,80 q 0,10 -10,10 l -80,0 Q 0,100 0,90 L 0,10 Q 0,0 10,0 z"
               id="path412"
               style="fill:none;stroke:none" />
            <g
               transform="scale(0.45454545,2.5)"
               id="g414">
              <path
                 d="m 10,0 200,0 q 10,0 10,10 l 0,20 q 0,10 -10,10 L 10,40 Q 0,40 0,30 L 0,10 Q 0,0 10,0 z"
                 id="path416"
                 style="fill:#ffffff;stroke:none" />
              <path
                 d="m 10,0 m 0,0 200,0 q 10,0 10,10 l 0,20 q 0,10 -10,10 L 10,40 Q 0,40 0,30 L 0,10 Q 0,0 10,0 z"
                 id="path418"
                 style="fill:none;stroke:#333333;stroke-width:2;stroke-miterlimit:10" />
            </g>
          </g>
        </g>
      </g>
    </g>
    <g
       transform="translate(126.4,411.875)"
       id="g420">
      <text
         x="65.599998"
         y="11"
         id="text422"
         style="font-size:12px;font-style:normal;font-weight:normal;text-decoration:none;fill:#000000;stroke:none;font-family:Arial">machineshop</text>
      <text
         x="13.1"
         y="25"
         id="text424"
         style="font-size:12px;font-style:normal;font-weight:normal;text-decoration:none;fill:#000000;stroke:none;font-family:Arial"> </text>
      <text
         x="16.1"
         y="25"
         id="text426"
         style="font-size:12px;font-style:normal;font-weight:normal;text-decoration:none;fill:#000000;stroke:none;font-family:Arial">(container managment daemon</text>
      <text
         x="190.10001"
         y="25"
         id="text428"
         style="font-size:12px;font-style:normal;font-weight:normal;text-decoration:none;fill:#000000;stroke:none;font-family:Arial">)</text>
    </g>
    <g
       transform="translate(582.5,405.875)"
       id="g430">
      <g
         id="g432">
        <g
           transform="scale(1.375,0.4)"
           id="g434">
          <g
             id="g436">
            <path
               d="m 10,0 80,0 q 10,0 10,10 l 0,80 q 0,10 -10,10 l -80,0 Q 0,100 0,90 L 0,10 Q 0,0 10,0 z"
               id="path438"
               style="fill:none;stroke:none" />
            <g
               transform="scale(0.72727273,2.5)"
               id="g440">
              <path
                 d="m 10,0 117.5,0 q 10,0 10,10 l 0,20 q 0,10 -10,10 L 10,40 Q 0,40 0,30 L 0,10 Q 0,0 10,0 z"
                 id="path442"
                 style="fill:#ffffff;stroke:none" />
              <path
                 d="m 10,0 m 0,0 117.5,0 q 10,0 10,10 l 0,20 q 0,10 -10,10 L 10,40 Q 0,40 0,30 L 0,10 Q 0,0 10,0 z"
                 id="path444"
                 style="fill:none;stroke:#333333;stroke-width:2;stroke-miterlimit:10" />
            </g>
          </g>
        </g>
      </g>
    </g>
    <g
       transform="translate(587.25,411.875)"
       id="g446">
      <text
         x="49.5"
         y="11"
         id="text448"
         style="font-size:12px;font-style:normal;font-weight:normal;text-decoration:none;fill:#000000;stroke:none;font-family:Arial">nginx</text>
      <text
         x="2.5"
         y="25"
         id="text450"
         style="font-size:12px;font-style:normal;font-weight:normal;text-decoration:none;fill:#000000;stroke:none;font-family:Arial"> </text>
      <text
         x="5.5"
         y="25"
         id="text452"
         style="font-size:12px;font-style:normal;font-weight:normal;text-decoration:none;fill:#000000;stroke:none;font-family:Arial">(proxying to container</text>
      <text
         x="121.5"
         y="25"
         id="text454"
         style="font-size:12px;font-style:normal;font-weight:normal;text-decoration:none;fill:#000000;stroke:none;font-family:Arial">)</text>
    </g>
    <g
       transform="translate(100,475)"
       id="g456">
      <g
         id="g458">
        <g
           transform="scale(6.4,0.7)"
           id="g460">
          <g
             id="g462">
            <path
               d="m 0,0 100,0 q 0,0 0,0 l 0,100 q 0,0 0,0 L 0,100 q 0,0 0,0 L 0,0 q 0,0 0,0 z"
               id="path464"
               style="fill:#d9ead3;stroke:none" />
            <g
               transform="scale(0.15625,1.4285714)"
               id="g466">
              <path
                 d="m 0,0 640,0 q 0,0 0,0 l 0,70 q 0,0 0,0 L 0,70 q 0,0 0,0 L 0,0 q 0,0 0,0 z"
                 id="path468"
                 style="fill:none;stroke:none" />
              <path
                 d="m 0,0 m 0,0 8,0 m 0,0 m 2,0 8,0 m 0,0 m 2,0 8,0 m 0,0 m 2,0 8,0 m 0,0 m 2,0 8,0 m 0,0 m 2,0 8,0 m 0,0 m 2,0 8,0 m 0,0 m 2,0 8,0 m 0,0 m 2,0 8,0 m 0,0 m 2,0 8,0 m 0,0 m 2,0 8,0 m 0,0 m 2,0 8,0 m 0,0 m 2,0 8,0 m 0,0 m 2,0 8,0 m 0,0 m 2,0 8,0 m 0,0 m 2,0 8,0 m 0,0 m 2,0 8,0 m 0,0 m 2,0 8,0 m 0,0 m 2,0 8,0 m 0,0 m 2,0 8,0 m 0,0 m 2,0 8,0 m 0,0 m 2,0 8,0 m 0,0 m 2,0 8,0 m 0,0 m 2,0 8,0 m 0,0 m 2,0 8,0 m 0,0 m 2,0 8,0 m 0,0 m 2,0 8,0 m 0,0 m 2,0 8,0 m 0,0 m 2,0 8,0 m 0,0 m 2,0 8,0 m 0,0 m 2,0 8,0 m 0,0 m 2,0 8,0 m 0,0 m 2,0 8,0 m 0,0 m 2,0 8,0 m 0,0 m 2,0 8,0 m 0,0 m 2,0 8,0 m 0,0 m 2,0 8,0 m 0,0 m 2,0 8,0 m 0,0 m 2,0 8,0 m 0,0 m 2,0 8,0 m 0,0 m 2,0 8,0 m 0,0 m 2,0 8,0 m 0,0 m 2,0 8,0 m 0,0 m 2,0 8,0 m 0,0 m 2,0 8,0 m 0,0 m 2,0 8,0 m 0,0 m 2,0 8,0 m 0,0 m 2,0 8,0 m 0,0 m 2,0 8,0 m 0,0 m 2,0 8,0 m 0,0 m 2,0 8,0 m 0,0 m 2,0 8,0 m 0,0 m 2,0 8,0 m 0,0 m 2,0 8,0 m 0,0 m 2,0 8,0 m 0,0 m 2,0 8,0 m 0,0 m 2,0 8,0 m 0,0 m 2,0 8,0 m 0,0 m 2,0 8,0 m 0,0 m 2,0 8,0 m 0,0 m 2,0 8,0 m 0,0 m 2,0 8,0 m 0,0 m 2,0 8,0 m 0,0 m 2,0 8,0 m 0,0 m 2,0 0,0 q 0,0 0,0 l 0,8 m 0,0 m 0,2 0,8 m 0,0 m 0,2 0,8 m 0,0 m 0,2 0,8 m 0,0 m 0,2 0,8 m 0,0 m 0,2 0,8 m 0,0 m 0,2 0,8 m 0,0 m 0,2 0,0 q 0,0 0,0 l -8,0 m 0,0 m -2,0 -8,0 m 0,0 m -2,0 -8,0 m 0,0 m -2,0 -8,0 m 0,0 m -2,0 -8,0 m 0,0 m -2,0 -8,0 m 0,0 m -2,0 -8,0 m 0,0 m -2,0 -8,0 m 0,0 m -2,0 -8,0 m 0,0 m -2,0 -8,0 m 0,0 m -2,0 -8,0 m 0,0 m -2,0 -8,0 m 0,0 m -2,0 -8,0 m 0,0 m -2,0 -8,0 m 0,0 m -2,0 -8,0 m 0,0 m -2,0 -8,0 m 0,0 m -2,0 -8,0 m 0,0 m -2,0 -8,0 m 0,0 m -2,0 -8,0 m 0,0 m -2,0 -8,0 m 0,0 m -2,0 -8,0 m 0,0 m -2,0 -8,0 m 0,0 m -2,0 -8,0 m 0,0 m -2,0 -8,0 m 0,0 m -2,0 -8,0 m 0,0 m -2,0 -8,0 m 0,0 m -2,0 -8,0 m 0,0 m -2,0 -8,0 m 0,0 m -2,0 -8,0 m 0,0 m -2,0 -8,0 m 0,0 m -2,0 -8,0 m 0,0 m -2,0 -8,0 m 0,0 m -2,0 -8,0 m 0,0 m -2,0 -8,0 m 0,0 m -2,0 -8,0 m 0,0 m -2,0 -8,0 m 0,0 m -2,0 -8,0 m 0,0 m -2,0 -8,0 m 0,0 m -2,0 -8,0 m 0,0 m -2,0 -8,0 m 0,0 m -2,0 -8,0 m 0,0 m -2,0 -8,0 m 0,0 m -2,0 -8,0 m 0,0 m -2,0 -8,0 m 0,0 m -2,0 -8,0 m 0,0 m -2,0 -8,0 m 0,0 m -2,0 -8,0 m 0,0 m -2,0 -8,0 m 0,0 m -2,0 -8,0 m 0,0 m -2,0 -8,0 m 0,0 m -2,0 -8,0 m 0,0 m -2,0 -8,0 m 0,0 m -2,0 -8,0 m 0,0 m -2,0 -8,0 m 0,0 m -2,0 -8,0 m 0,0 m -2,0 -8,0 m 0,0 m -2,0 -8,0 m 0,0 m -2,0 -8,0 m 0,0 m -2,0 -8,0 m 0,0 m -2,0 -8,0 m 0,0 m -2,0 -8,0 m 0,0 m -2,0 -8,0 m 0,0 m -2,0 -8,0 m 0,0 m -2,0 -8,0 m 0,0 m -2,0 0,0 q 0,0 0,0 l 0,-8 m 0,0 m 0,-2 0,-8 m 0,0 m 0,-2 0,-8 m 0,0 m 0,-2 0,-8 m 0,0 m 0,-2 0,-8 m 0,0 m 0,-2 0,-8 m 0,0 M 0,10 0,2 M 0,2 M 0,0 0,0 q 0,0 0,0 z"
                 id="path470"
                 style="fill:none;stroke:#333333;stroke-width:2;stroke-miterlimit:10" />
            </g>
          </g>
          <g
             id="g472">
            <g
               transform="scale(0.15625,1.4285714)"
               id="g474">
              <path
                 d="m 12.8,1.4 0,66.5 608,0 0,-65.8 -601.6,0 z"
                 id="path476"
                 style="opacity:0;fill:#000000;fill-opacity:0;stroke:none" />
              <path
                 d="m 12.8,1.4 m 0,0 0,4 m 0,0 m 0,2 0,4 m 0,0 m 0,2 0,4 m 0,0 m 0,2 0,4 m 0,0 m 0,2 0,4 m 0,0 m 0,2 0,4 m 0,0 m 0,2 0,4 m 0,0 m 0,2 0,4 m 0,0 m 0,2 0,4 m 0,0 m 0,2 0,4 m 0,0 m 0,2 0,4 m 0,0 m 0,2 0,0.5 3.5,0 m 0,0 m 2,0 4,0 m 0,0 m 2,0 4,0 m 0,0 m 2,0 4,0 m 0,0 m 2,0 4,0 m 0,0 m 2,0 4,0 m 0,0 m 2,0 4,0 m 0,0 m 2,0 4,0 m 0,0 m 2,0 4,0 m 0,0 m 2,0 4,0 m 0,0 m 2,0 4,0 m 0,0 m 2,0 4,0 m 0,0 m 2,0 4,0 m 0,0 m 2,0 4,0 m 0,0 m 2,0 4,0 m 0,0 m 2,0 4,0 m 0,0 m 2,0 4,0 m 0,0 m 2,0 4,0 m 0,0 m 2,0 4,0 m 0,0 m 2,0 4,0 m 0,0 m 2,0 4,0 m 0,0 m 2,0 4,0 m 0,0 m 2,0 4,0 m 0,0 m 2,0 4,0 m 0,0 m 2,0 4,0 m 0,0 m 2,0 4,0 m 0,0 m 2,0 4,0 m 0,0 m 2,0 4,0 m 0,0 m 2,0 4,0 m 0,0 m 2,0 4,0 m 0,0 m 2,0 4,0 m 0,0 m 2,0 4,0 m 0,0 m 2,0 4,0 m 0,0 m 2,0 4,0 m 0,0 m 2,0 4,0 m 0,0 m 2,0 4,0 m 0,0 m 2,0 4,0 m 0,0 m 2,0 4,0 m 0,0 m 2,0 4,0 m 0,0 m 2,0 4,0 m 0,0 m 2,0 4,0 m 0,0 m 2,0 4,0 m 0,0 m 2,0 4,0 m 0,0 m 2,0 4,0 m 0,0 m 2,0 4,0 m 0,0 m 2,0 4,0 m 0,0 m 2,0 4,0 m 0,0 m 2,0 4,0 m 0,0 m 2,0 4,0 m 0,0 m 2,0 4,0 m 0,0 m 2,0 4,0 m 0,0 m 2,0 4,0 m 0,0 m 2,0 4,0 m 0,0 m 2,0 4,0 m 0,0 m 2,0 4,0 m 0,0 m 2,0 4,0 m 0,0 m 2,0 4,0 m 0,0 m 2,0 4,0 m 0,0 m 2,0 4,0 m 0,0 m 2,0 4,0 m 0,0 m 2,0 4,0 m 0,0 m 2,0 4,0 m 0,0 m 2,0 4,0 m 0,0 m 2,0 4,0 m 0,0 m 2,0 4,0 m 0,0 m 2,0 4,0 m 0,0 m 2,0 4,0 m 0,0 m 2,0 4,0 m 0,0 m 2,0 4,0 m 0,0 m 2,0 4,0 m 0,0 m 2,0 4,0 m 0,0 m 2,0 4,0 m 0,0 m 2,0 4,0 m 0,0 m 2,0 4,0 m 0,0 m 2,0 4,0 m 0,0 m 2,0 4,0 m 0,0 m 2,0 4,0 m 0,0 m 2,0 4,0 m 0,0 m 2,0 4,0 m 0,0 m 2,0 4,0 m 0,0 m 2,0 4,0 m 0,0 m 2,0 4,0 m 0,0 m 2,0 4,0 m 0,0 m 2,0 4,0 m 0,0 m 2,0 4,0 m 0,0 m 2,0 4,0 m 0,0 m 2,0 4,0 m 0,0 m 2,0 4,0 m 0,0 m 2,0 4,0 m 0,0 m 2,0 4,0 m 0,0 m 2,0 4,0 m 0,0 m 2,0 4,0 m 0,0 m 2,0 4,0 m 0,0 m 2,0 4,0 m 0,0 m 2,0 4,0 m 0,0 m 2,0 4,0 m 0,0 m 2,0 4,0 m 0,0 m 2,0 4,0 m 0,0 m 2,0 4,0 m 0,0 m 2,0 4,0 m 0,0 m 2,0 4,0 m 0,0 m 2,0 2.5,0 0,-1.5 m 0,0 m 0,-2 0,-4 m 0,0 m 0,-2 0,-4 m 0,0 m 0,-2 0,-4 m 0,0 m 0,-2 0,-4 m 0,0 m 0,-2 0,-4 m 0,0 m 0,-2 0,-4 m 0,0 m 0,-2 0,-4 m 0,0 m 0,-2 0,-4 m 0,0 m 0,-2 0,-4 m 0,0 m 0,-2 0,-4 m 0,0 m 0,-2 0,-2.3 -1.7,0 m 0,0 m -2,0 -4,0 m 0,0 m -2,0 -4,0 m 0,0 m -2,0 -4,0 m 0,0 m -2,0 -4,0 m 0,0 m -2,0 -4,0 m 0,0 m -2,0 -4,0 m 0,0 m -2,0 -4,0 m 0,0 m -2,0 -4,0 m 0,0 m -2,0 -4,0 m 0,0 m -2,0 -4,0 m 0,0 m -2,0 -4,0 m 0,0 m -2,0 -4,0 m 0,0 m -2,0 -4,0 m 0,0 m -2,0 -4,0 m 0,0 m -2,0 -4,0 m 0,0 m -2,0 -4,0 m 0,0 m -2,0 -4,0 m 0,0 m -2,0 -4,0 m 0,0 m -2,0 -4,0 m 0,0 m -2,0 -4,0 m 0,0 m -2,0 -4,0 m 0,0 m -2,0 -4,0 m 0,0 m -2,0 -4,0 m 0,0 m -2,0 -4,0 m 0,0 m -2,0 -4,0 m 0,0 m -2,0 -4,0 m 0,0 m -2,0 -4,0 m 0,0 m -2,0 -4,0 m 0,0 m -2,0 -4,0 m 0,0 m -2,0 -4,0 m 0,0 m -2,0 -4,0 m 0,0 m -2,0 -4,0 m 0,0 m -2,0 -4,0 m 0,0 m -2,0 -4,0 m 0,0 m -2,0 -4,0 m 0,0 m -2,0 -4,0 m 0,0 m -2,0 -4,0 m 0,0 m -2,0 -4,0 m 0,0 m -2,0 -4,0 m 0,0 m -2,0 -4,0 m 0,0 m -2,0 -4,0 m 0,0 m -2,0 -4,0 m 0,0 m -2,0 -4,0 m 0,0 m -2,0 -4,0 m 0,0 m -2,0 -4,0 m 0,0 m -2,0 -4,0 m 0,0 m -2,0 -4,0 m 0,0 m -2,0 -4,0 m 0,0 m -2,0 -4,0 m 0,0 m -2,0 -4,0 m 0,0 m -2,0 -4,0 m 0,0 m -2,0 -4,0 m 0,0 m -2,0 -4,0 m 0,0 m -2,0 -4,0 m 0,0 m -2,0 -4,0 m 0,0 m -2,0 -4,0 m 0,0 m -2,0 -4,0 m 0,0 m -2,0 -4,0 m 0,0 m -2,0 -4,0 m 0,0 m -2,0 -4,0 m 0,0 m -2,0 -4,0 m 0,0 m -2,0 -4,0 m 0,0 m -2,0 -4,0 m 0,0 m -2,0 -4,0 m 0,0 m -2,0 -4,0 m 0,0 m -2,0 -4,0 m 0,0 m -2,0 -4,0 m 0,0 m -2,0 -4,0 m 0,0 m -2,0 -4,0 m 0,0 m -2,0 -4,0 m 0,0 m -2,0 -4,0 m 0,0 m -2,0 -4,0 m 0,0 m -2,0 -4,0 m 0,0 m -2,0 -4,0 m 0,0 m -2,0 -4,0 m 0,0 m -2,0 -4,0 m 0,0 m -2,0 -4,0 m 0,0 m -2,0 -4,0 m 0,0 m -2,0 -4,0 m 0,0 m -2,0 -4,0 m 0,0 m -2,0 -4,0 m 0,0 m -2,0 -4,0 m 0,0 m -2,0 -4,0 m 0,0 m -2,0 -4,0 m 0,0 m -2,0 -4,0 m 0,0 m -2,0 -4,0 m 0,0 m -2,0 -4,0 m 0,0 m -2,0 -4,0 m 0,0 m -2,0 -4,0 m 0,0 m -2,0 -4,0 m 0,0 m -2,0 -4,0 m 0,0 m -2,0 -4,0 m 0,0 m -2,0 -4,0 m 0,0 m -2,0 -4,0 m 0,0 m -2,0 -4,0 m 0,0 m -2,0 -4,0 m 0,0 m -2,0 -4,0 m 0,0 m -2,0 -4,0 m 0,0 m -2,0 -4,0 m 0,0 m -2,0 -3.9,0 z"
                 id="path478"
                 style="opacity:0;fill:none;stroke:#3c7626;stroke-width:2;stroke-miterlimit:10" />
            </g>
          </g>
        </g>
      </g>
    </g>
    <g
       transform="translate(104,477)"
       id="g480">
      <text
         x="0"
         y="11"
         id="text482"
         style="font-size:12px;font-style:normal;font-weight:normal;text-decoration:none;fill:#000000;stroke:none;font-family:Arial">Programing and</text>
      <text
         x="0"
         y="25"
         id="text484"
         style="font-size:12px;font-style:normal;font-weight:normal;text-decoration:none;fill:#000000;stroke:none;font-family:Arial">data analysis</text>
      <text
         x="0"
         y="39"
         id="text486"
         style="font-size:12px;font-style:normal;font-weight:normal;text-decoration:none;fill:#000000;stroke:none;font-family:Arial">Docker containers</text>
    </g>
    <g
       transform="translate(330,490)"
       id="g488">
      <g
         id="g490">
        <g
           transform="scale(0.5,0.4)"
           id="g492">
          <g
             id="g494">
            <g
               transform="scale(2,2.5)"
               id="g496">
              <path
                 d="M 12.5,0 37.5,0 50,20 37.5,40 12.5,40 0,20 12.5,0 z"
                 id="path498"
                 style="fill:#ffffff;stroke:none" />
              <path
                 d="m 12.5,0 m 0,0 25,0 L 50,20 37.5,40 12.5,40 0,20 12.5,0 z"
                 id="path500"
                 style="fill:none;stroke:#333333;stroke-width:2;stroke-miterlimit:10" />
            </g>
          </g>
        </g>
      </g>
    </g>
    <g
       transform="translate(670,490)"
       id="g502">
      <g
         id="g504">
        <g
           transform="scale(0.5,0.4)"
           id="g506">
          <g
             id="g508">
            <g
               transform="scale(2,2.5)"
               id="g510">
              <path
                 d="M 12.5,0 37.5,0 50,20 37.5,40 12.5,40 0,20 12.5,0 z"
                 id="path512"
                 style="fill:#ffffff;stroke:none" />
              <path
                 d="m 12.5,0 m 0,0 25,0 L 50,20 37.5,40 12.5,40 0,20 12.5,0 z"
                 id="path514"
                 style="fill:none;stroke:#333333;stroke-width:2;stroke-miterlimit:10" />
            </g>
          </g>
        </g>
      </g>
    </g>
    <g
       transform="translate(560,490)"
       id="g516">
      <g
         id="g518">
        <g
           transform="scale(0.5,0.4)"
           id="g520">
          <g
             id="g522">
            <g
               transform="scale(2,2.5)"
               id="g524">
              <path
                 d="M 12.5,0 37.5,0 50,20 37.5,40 12.5,40 0,20 12.5,0 z"
                 id="path526"
                 style="fill:#ffffff;stroke:none" />
              <path
                 d="m 12.5,0 m 0,0 25,0 L 50,20 37.5,40 12.5,40 0,20 12.5,0 z"
                 id="path528"
                 style="fill:none;stroke:#333333;stroke-width:2;stroke-miterlimit:10" />
            </g>
          </g>
        </g>
      </g>
    </g>
    <g
       transform="translate(440,490)"
       id="g530">
      <g
         id="g532">
        <g
           transform="scale(0.5,0.4)"
           id="g534">
          <g
             id="g536">
            <g
               transform="scale(2,2.5)"
               id="g538">
              <path
                 d="M 12.5,0 37.5,0 50,20 37.5,40 12.5,40 0,20 12.5,0 z"
                 id="path540"
                 style="fill:#ffffff;stroke:none" />
              <path
                 d="m 12.5,0 m 0,0 25,0 L 50,20 37.5,40 12.5,40 0,20 12.5,0 z"
                 id="path542"
                 style="fill:none;stroke:#333333;stroke-width:2;stroke-miterlimit:10" />
            </g>
          </g>
        </g>
      </g>
    </g>
    <g
       transform="translate(593,441.375)"
       id="g544">
      <g
         id="g546">
        <g
           transform="translate(-593,-441.375)"
           id="g548">
          <g
             id="g550">
            <path
               d="m 651.25,445.875 0,12.0625 q 0,10 -10,10 l -33.75,0 q -10,0 -10,10 l 0,12.0625"
               id="path552"
               style="fill:none;stroke:#000000;stroke-width:2;stroke-miterlimit:10" />
          </g>
        </g>
      </g>
    </g>
    <g
       transform="translate(646.75,441.375)"
       id="g554">
      <g
         id="g556">
        <g
           transform="translate(-646.75,-441.375)"
           id="g558">
          <g
             id="g560">
            <path
               d="m 651.25,445.875 0,12.0625 q 0,10 10,10 l 11.25,0 q 10,0 10,10 l 0,12.0625"
               id="path562"
               style="fill:none;stroke:#000000;stroke-width:2;stroke-miterlimit:10" />
          </g>
        </g>
      </g>
    </g>
    <g
       transform="translate(473,441.375)"
       id="g564">
      <g
         id="g566">
        <g
           transform="translate(-473,-441.375)"
           id="g568">
          <g
             id="g570">
            <path
               d="m 651.25,445.875 0,12.0625 q 0,10 -10,10 l -153.75,0 q -10,0 -10,10 l 0,12.0625"
               id="path572"
               style="fill:none;stroke:#000000;stroke-width:2;stroke-miterlimit:10" />
          </g>
        </g>
      </g>
    </g>
    <g
       transform="translate(363,441.375)"
       id="g574">
      <g
         id="g576">
        <g
           transform="translate(-363,-441.375)"
           id="g578">
          <g
             id="g580">
            <path
               d="m 651.25,445.875 0,12.0625 q 0,10 -10,10 l -263.75,0 q -10,0 -10,10 l 0,12.0625"
               id="path582"
               style="fill:none;stroke:#000000;stroke-width:2;stroke-miterlimit:10" />
          </g>
        </g>
      </g>
    </g>
    <g
       transform="translate(535.5,421.375)"
       id="g584">
      <g
         id="g586">
        <g
           transform="translate(-535.5,-421.375)"
           id="g588">
          <g
             id="g590">
            <path
               d="m 582.5,425.875 -7.08333,0 q -7.08334,0 -14.16667,0 l 0,0 q -7.08333,0 -14.16667,0 l -7.08333,0"
               id="path592"
               style="fill:none;stroke:#000000;stroke-width:2;stroke-miterlimit:10" />
          </g>
        </g>
      </g>
    </g>
    <g
       transform="translate(585.5,196.375)"
       id="g594">
      <g
         id="g596">
        <g
           transform="translate(-585.5,-196.375)"
           id="g598">
          <g
             id="g600">
            <path
               d="m 651.25,405.875 0,-92.5 q 0,-10 -10,-10 l -41.25,0 q -10,0 -10,-10 l 0,-92.5"
               id="path602"
               style="fill:none;stroke:#000000;stroke-width:2;stroke-miterlimit:10" />
          </g>
        </g>
      </g>
    </g>
    <g
       transform="translate(448.63708,196.375)"
       id="g604">
      <g
         id="g606">
        <g
           transform="translate(-448.63708,-196.375)"
           id="g608">
          <g
             id="g610">
            <path
               d="m 536.15224,200.875 m 0,0 0,2 m 0,0 m 0,2 0,2 m 0,0 m 0,2 0,2 m 0,0 m 0,2 0,2 m 0,0 m 0,2 0,2 m 0,0 m 0,2 0,0.8125 q 0,0.61208 -0.0375,1.1867 m 0,0 m -0.26327,1.98091 q -0.2165,1.03195 -0.58887,1.90803 m 0,0 m -0.99849,1.72672 q -0.61246,0.79703 -1.42358,1.3954 m 0,0 m -1.7445,0.96742 q -0.88125,0.35808 -1.91609,0.56257 m 0,0 m -1.98352,0.24347 q -0.50771,0.0288 -1.04421,0.0288 l -0.95525,0 m 0,0 m -2,0 -2,0 m 0,0 m -2,0 -2,0 m 0,0 m -2,0 -2,0 m 0,0 m -2,0 -2,0 m 0,0 m -2,0 -2,0 m 0,0 m -2,0 -2,0 m 0,0 m -2,0 -2,0 m 0,0 m -2,0 -2,0 m 0,0 m -2,0 -2,0 m 0,0 m -2,0 -2,0 m 0,0 m -2,0 -2,0 m 0,0 m -2,0 -2,0 m 0,0 m -2,0 -2,0 m 0,0 m -2,0 -2,0 m 0,0 m -2,0 -2,0 m 0,0 m -2,0 -0.0599,0 q -1.02017,0 -1.93626,0.10408 m 0,0 m -1.96236,0.37503 q -1.01181,0.28354 -1.85584,0.73487 m 0,0 m -1.61953,1.16311 q -0.71767,0.68281 -1.2392,1.56176 m 0,0 m -0.80702,1.82519 q -0.28679,0.90427 -0.43172,1.9504 m 0,0 m -0.1459,1.99341 q -0.002,0.14499 -0.002,0.29215 l 0,1.70784 m 0,0 m 0,2 0,2 m 0,0 m 0,2 0,2 m 0,0 m 0,2 0,2 m 0,0 m 0,2 0,2 m 0,0 m 0,2 0,1.10466"
               id="path612"
               style="fill:none;stroke:#000000;stroke-width:2;stroke-miterlimit:10" />
          </g>
        </g>
      </g>
    </g>
    <g
       transform="translate(245.5,196.375)"
       id="g614">
      <g
         id="g616">
        <g
           transform="translate(-245.5,-196.375)"
           id="g618">
          <g
             id="g620">
            <path
               d="m 379,262.5 m 0,0 0,-2 m 0,0 m 0,-2 0,-2 m 0,0 m 0,-2 0,-2 m 0,0 m 0,-2 0,-2 m 0,0 m 0,-2 0,-2 m 0,0 m 0,-2 0,-0.8125 q 0,-0.61208 -0.0375,-1.1867 m 0,0 m -0.26328,-1.98091 q -0.2165,-1.03195 -0.58886,-1.90803 m 0,0 m -0.9985,-1.72672 q -0.61246,-0.79703 -1.42358,-1.3954 m 0,0 m -1.7445,-0.96742 q -0.88124,-0.35808 -1.91608,-0.56257 m 0,0 m -1.98352,-0.24347 Q 369.5365,231.6875 369,231.6875 l -0.95525,0 m 0,0 m -2,0 -2,0 m 0,0 m -2,0 -2,0 m 0,0 m -2,0 -2,0 m 0,0 m -2,0 -2,0 m 0,0 m -2,0 -2,0 m 0,0 m -2,0 -2,0 m 0,0 m -2,0 -2,0 m 0,0 m -2,0 -2,0 m 0,0 m -2,0 -2,0 m 0,0 m -2,0 -2,0 m 0,0 m -2,0 -2,0 m 0,0 m -2,0 -2,0 m 0,0 m -2,0 -2,0 m 0,0 m -2,0 -2,0 m 0,0 m -2,0 -2,0 m 0,0 m -2,0 -2,0 m 0,0 m -2,0 -2,0 m 0,0 m -2,0 -2,0 m 0,0 m -2,0 -2,0 m 0,0 m -2,0 -2,0 m 0,0 m -2,0 -2,0 m 0,0 m -2,0 -2,0 m 0,0 m -2,0 -2,0 m 0,0 m -2,0 -2,0 m 0,0 m -2,0 -2,0 m 0,0 m -2,0 -2,0 m 0,0 m -2,0 -2,0 m 0,0 m -1.99607,-0.10579 q -1.04935,-0.12031 -1.96189,-0.37742 m 0,0 m -1.85461,-0.73793 q -0.90542,-0.48635 -1.61714,-1.16641 m 0,0 m -1.23596,-1.56433 q -0.48842,-0.82681 -0.80386,-1.8266 m 0,0 m -0.42923,-1.95097 q -0.12914,-0.93966 -0.14404,-1.99355 m 0,0 m -0.002,-2 0,-2 m 0,0 m 0,-2 0,-2 m 0,0 m 0,-2 0,-2 m 0,0 m 0,-2 0,-2 m 0,0 m 0,-2 0,-2 m 0,0"
               id="path622"
               style="fill:none;stroke:#000000;stroke-width:2;stroke-miterlimit:10" />
          </g>
        </g>
      </g>
    </g>
    <g
       transform="translate(191.65224,196.375)"
       id="g624">
      <g
         id="g626">
        <g
           transform="translate(-191.65224,-196.375)"
           id="g628">
          <g
             id="g630">
            <path
               d="m 196.15224,262.62001 m 0,0 0,-2 m 0,0 m 0,-2 0,-2 m 0,0 m 0,-2 0,-2 m 0,0 m 0,-2 q 0,-1 0,-2 m 0,0 m 0,-2 q 0,-1 0,-2 m 0,0 m 0,-2 q 0,-1 0,-2 m 0,0 m 0,-2 q 0,-1 0,-2 m 0,0 m 0,-2 q 0,-1 0,-2 m 0,0 m 0,-2 q 0,-1 0,-2 m 0,0 m 0,-2 q 0,-1 0,-2 m 0,0 m 0,-2 q 0,-1 0,-2 m 0,0 m 0,-2 q 0,-1 0,-2 m 0,0 m 0,-2 q 0,-1 0,-2 m 0,0 m 0,-2 0,-2 m 0,0 m 0,-2 0,-2 m 0,0 m 0,-2 0,-1.74501"
               id="path632"
               style="fill:none;stroke:#000000;stroke-width:2;stroke-miterlimit:10" />
          </g>
        </g>
      </g>
    </g>
    <g
       transform="translate(299.34776,89.25)"
       id="g634">
      <g
         id="g636">
        <g
           transform="translate(-299.34776,-89.25)"
           id="g638">
          <g
             id="g640">
            <path
               d="m 352.6903,93.75 0,23.5625 q 0,10 -10,10 l -28.84254,0 q -10,0 -10,10 l 0,23.5625"
               id="path642"
               style="fill:none;stroke:#000000;stroke-width:2;stroke-miterlimit:10" />
          </g>
        </g>
      </g>
    </g>
    <g
       transform="translate(482.8097,89.25)"
       id="g644">
      <g
         id="g646">
        <g
           transform="translate(-482.8097,-89.25)"
           id="g648">
          <g
             id="g650">
            <path
               d="m 487.3097,93.75 0,23.5625 q 0,10 10,10 l 82.6903,0 q 10,0 10,10 l 0,23.5625"
               id="path652"
               style="fill:none;stroke:#000000;stroke-width:2;stroke-miterlimit:10" />
          </g>
        </g>
      </g>
    </g>
    <g
       transform="translate(271.06349,196.375)"
       id="g654">
      <g
         id="g656">
        <g
           transform="translate(-271.06349,-196.375)"
           id="g658">
          <g
             id="g660">
            <path
               d="m 312,200.875 m 0,0 0,2 m 0,0 m 0,2 0,2 m 0,0 m 0,2 0,2 m 0,0 m 0,2 0,2 m 0,0 m 0,2 0,2 m 0,0 m 0,2 0,2 m 0,0 m 0,2 0,2 m 0,0 m 0,2 0,2 m 0,0 m 0,2 0,2 m 0,0 m 0,2 0,2 m 0,0 m 0,2 0,2 m 0,0 m 0,2 0,2 m 0,0 m 0,2 0,2 m 0,0 m 0,2 0,2 m 0,0 m 0,2 0,2 m 0,0 m 0,2 0,2 m 0,0 m 0,2 0,2 m 0,0 m 0,2 0,2 m 0,0 m 0,2 0,2 m 0,0 m 0,2 0,2 m 0,0 m 0,2 0,2 m 0,0 m 0,2 0,2 m 0,0 m 0,2 0,2 m 0,0 m 0,2 0,2 m 0,0 m 0,2 0,2 m 0,0 m 0,2 0,2 m 0,0 m 0,2 0,2 m 0,0 m 0,2 0,2 m 0,0 m 0,2 0,2 m 0,0 m 0,2 0,2 m 0,0 m 0,2 0,2 m 0,0 m -0.0608,1.99832 q -0.089,1.05224 -0.30816,1.97425 m 0,0 m -0.64803,1.88842 q -0.43877,0.93714 -1.06685,1.68496 m 0,0 m -1.48321,1.33193 q -0.80049,0.53982 -1.78062,0.89999 m 0,0 m -1.93192,0.50664 q -0.93423,0.16074 -1.98837,0.20158 m 0,0 m -1.99982,0.0139 -2,0 m 0,0 m -2,0 -2,0 m 0,0 m -2,0 -2,0 m 0,0 m -2,0 -2,0 m 0,0 m -1.99973,0.018 q -1.05407,0.0467 -1.98696,0.21463 m 0,0 m -1.92716,0.52411 q -0.9753,0.37011 -1.76959,0.92124 m 0,0 m -1.46464,1.35229 q -0.61669,0.7552 -1.04518,1.69861 m 0,0 m -0.62905,1.89493 q -0.21128,0.92383 -0.29371,1.97651 m 0,0 m -0.0527,1.99865 0,2 m 0,0 m 0,2 0,2 m 0,0 m 0,2 0,2 m 0,0 m 0,2 0,2 m 0,0 m 0,2 0,2 m 0,0 m 0,2 0,2 m 0,0 m 0,2 0,2 m 0,0 m 0,2 0,2 m 0,0 m 0,2 0,2 m 0,0 m 0,2 0,2 m 0,0 m 0,2 0,2 m 0,0 m 0,2 0,2 m 0,0 m 0,2 0,2 m 0,0 m 0,2 0,2 m 0,0 m 0,2 0,2 m 0,0 m 0,2 0,1.90101"
               id="path662"
               style="fill:none;stroke:#000000;stroke-width:2;stroke-miterlimit:10" />
          </g>
        </g>
      </g>
    </g>
    <g
       transform="translate(271.06349,441.375)"
       id="g664">
      <g
         id="g666">
        <g
           transform="translate(-271.06349,-441.375)"
           id="g668">
          <g
             id="g670">
            <path
               d="m 275.56349,445.875 m 0,0 0,2 m 0,0 m 0,2 0,2 m 0,0 m 0.0152,1.99978 q 0.047,1.08063 0.23934,1.98332 m 0,0 m 0.65616,1.88272 q 0.49099,0.93509 1.24669,1.54594 m 0,0 m 1.77237,0.89638 q 0.88839,0.25016 1.97763,0.25429 m 0,0 m 1.98025,0.23499 q 1.02386,0.2746 1.78568,0.87019 m 0,0 m 1.26959,1.52686 q 0.43992,0.81248 0.6751,1.87576 m 0,0 m 0.25153,1.98173 q 0.0186,0.3845 0.0186,0.79179 l 0,1.20791 m 0,0 m 0,2 0,2 m 0,0 m 0,2 0,0.0733"
               id="path672"
               style="fill:none;stroke:#000000;stroke-width:2;stroke-miterlimit:10" />
          </g>
        </g>
      </g>
    </g>
  </g>
</svg>
